<?xml version="1.0" standalone="no"?><!DOCTYPE svg PUBLIC "-//W3C//DTD SVG 1.1//EN" "http://www.w3.org/Graphics/SVG/1.1/DTD/svg11.dtd"><svg t="1655264962386" class="icon" viewBox="0 0 1024 1024" version="1.1" xmlns="http://www.w3.org/2000/svg" p-id="2412" width="32" height="32" xmlns:xlink="http://www.w3.org/1999/xlink"><defs><style type="text/css">@font-face { font-family: feedback-iconfont; src: url("//at.alicdn.com/t/font_1031158_u69w8yhxdu.woff2?t=1630033759944") format("woff2"), url("//at.alicdn.com/t/font_1031158_u69w8yhxdu.woff?t=1630033759944") format("woff"), url("//at.alicdn.com/t/font_1031158_u69w8yhxdu.ttf?t=1630033759944") format("truetype"); }
</style></defs><path d="M512 85.34016q14.336 0 28.32384 1.00352-28.32384 61.00992-28.32384 126.99648 0 60.66176 23.67488 115.99872t63.67232 95.3344 95.3344 63.67232 115.99872 23.67488q66.00704 0 126.99648-28.32384 1.00352 14.00832 1.00352 28.32384 0 57.99936-15.33952 113.33632t-42.82368 102.17472-66.82624 86.15936-86.15936 66.82624-102.17472 42.82368-113.33632 15.33952-113.33632-15.33952-102.17472-42.82368-86.15936-66.82624-66.82624-86.15936-42.82368-102.17472-15.33952-113.33632 15.33952-113.33632 42.82368-102.17472 66.82624-86.15936 86.15936-66.82624 102.17472-42.82368 113.33632-15.33952zM427.99104 181.00224q-55.00928 14.00832-102.5024 45.34272t-81.67424 74.3424-53.6576 97.83296-19.49696 113.50016q0 69.3248 26.99264 132.5056t72.82688 108.99456 108.99456 72.82688 132.5056 26.99264q58.6752 0 113.50016-19.49696t97.83296-53.6576 74.3424-81.67424 45.34272-102.5024q-14.336 1.3312-32.33792 1.3312-78.00832 0-148.992-30.49472t-122.49088-82.00192-82.00192-122.49088-30.49472-148.992q0-18.00192 1.3312-32.33792z" p-id="2413" fill="#ffffff"></path></svg>