<?xml version="1.0" encoding="UTF-8"?>
<svg width="18px" height="18px" viewBox="0 0 18 18" version="1.1" xmlns="http://www.w3.org/2000/svg" xmlns:xlink="http://www.w3.org/1999/xlink">
    <!-- Generator: Sketch 60.1 (88133) - https://sketch.com -->
    <title>Icon/18/communication_interrupt</title>
    <desc>Created with Sketch.</desc>
    <g id="Icon/18/communication_interrupt" stroke="none" stroke-width="1" fill="none" fill-rule="evenodd">
        <g id="Group-12">
            <rect id="empty" x="0" y="0" width="18" height="18"></rect>
            <path d="M15.5,3 C15.7761424,3 16,3.22385763 16,3.5 L16,16.5 C16,16.7761424 15.7761424,17 15.5,17 L14.5,17 C14.2238576,17 14,16.7761424 14,16.5 L14,3.5 C14,3.22385763 14.2238576,3 14.5,3 L15.5,3 Z M7.5,11 C7.77614237,11 8,11.2238576 8,11.5 L8,16.5 C8,16.7761424 7.77614237,17 7.5,17 L6.5,17 C6.22385763,17 6,16.7761424 6,16.5 L6,11.5 C6,11.2238576 6.22385763,11 6.5,11 L7.5,11 Z M3.5,13 C3.77614237,13 4,13.2238576 4,13.5 L4,16.5 C4,16.7761424 3.77614237,17 3.5,17 L2.5,17 C2.22385763,17 2,16.7761424 2,16.5 L2,13.5 C2,13.2238576 2.22385763,13 2.5,13 L3.5,13 Z M11.5,8 C11.7761424,8 12,8.22385763 12,8.5 L12,16.5 C12,16.7761424 11.7761424,17 11.5,17 L10.5,17 C10.2238576,17 10,16.7761424 10,16.5 L10,8.5 C10,8.22385763 10.2238576,8 10.5,8 L11.5,8 Z M3.06066017,2.35355339 L4.5,3.79310678 L5.93933983,2.35355339 C6.13460197,2.15829124 6.45118446,2.15829124 6.64644661,2.35355339 L7.35355339,3.06066017 C7.54881554,3.25592232 7.54881554,3.57250481 7.35355339,3.76776695 L5.914,5.20710678 L7.35355339,6.64644661 C7.54881554,6.84170876 7.54881554,7.15829124 7.35355339,7.35355339 L6.64644661,8.06066017 C6.45118446,8.25592232 6.13460197,8.25592232 5.93933983,8.06066017 L4.5,6.62110678 L3.06066017,8.06066017 C2.86539803,8.25592232 2.54881554,8.25592232 2.35355339,8.06066017 L1.64644661,7.35355339 C1.45118446,7.15829124 1.45118446,6.84170876 1.64644661,6.64644661 L3.086,5.20710678 L1.64644661,3.76776695 C1.45118446,3.57250481 1.45118446,3.25592232 1.64644661,3.06066017 L2.35355339,2.35355339 C2.54881554,2.15829124 2.86539803,2.15829124 3.06066017,2.35355339 Z" id="形状结合" fill="#FFFFFF"></path>
        </g>
    </g>
</svg>