<?xml version="1.0" encoding="UTF-8"?>
<svg width="16px" height="16px" viewBox="0 0 16 16" version="1.1" xmlns="http://www.w3.org/2000/svg" xmlns:xlink="http://www.w3.org/1999/xlink">
    <!-- Generator: Sketch 55.2 (78181) - https://sketchapp.com -->
    <title>减</title>
    <desc>Created with Sketch.</desc>
    <g id="页面1" stroke="none" stroke-width="1" fill="none" fill-rule="evenodd">
        <g id="区域选择器定义备份" transform="translate(-348.000000, -1414.000000)" fill="#00CCFF" fill-rule="nonzero">
            <g id="编组-4备份-3" transform="translate(348.000000, 1414.000000)">
                <g id="编组-4备份-2">
                    <g id="减">
                        <path d="M13.6470588,2.34285714 C12.1069519,0.857142859 10.1105169,0 8,0 C5.88948308,0 3.83600712,0.857142859 2.35294117,2.34285714 C-0.784313725,5.48571428 -0.784313725,10.5142857 2.35294117,13.6571429 C3.83600712,15.1428571 5.88948306,16 8,16 C10.1105169,16 12.1639929,15.1428571 13.6470588,13.6571429 C16.7843137,10.5142857 16.7843137,5.48571428 13.6470588,2.34285714 M12.2411642,12.25 C11.0935551,13.4 9.59667359,14 8,14 C6.40332641,14 4.90644491,13.4 3.75883576,12.25 C1.41372141,9.90000001 1.41372141,6.10000001 3.75883576,3.75 C4.90644491,2.6 6.4033264,2 8,2 C9.5966736,2 11.0935551,2.6 12.2411642,3.75 C14.5862786,6.09999999 14.5862786,9.89999999 12.2411642,12.25" id="Shape"></path>
                        <path d="M4,8 C4,8.55228475 4.44771525,9 5,9 L11,9 C11.5522847,9 12,8.55228475 12,8 C12,7.44771525 11.5522847,7 11,7 L5,7 C4.44771525,7 4,7.44771525 4,8 Z" id="Shape"></path>
                    </g>
                </g>
            </g>
        </g>
    </g>
</svg>