<?xml version="1.0" standalone="no"?><!DOCTYPE svg PUBLIC "-//W3C//DTD SVG 1.1//EN" "http://www.w3.org/Graphics/SVG/1.1/DTD/svg11.dtd"><svg class="icon" width="24px" height="24.00px" viewBox="0 0 1024 1024" version="1.1" xmlns="http://www.w3.org/2000/svg"><path fill="#30BDC1" d="M602.048 884.288a46.528 46.528 0 0 1-46.528-46.528V601.856a46.528 46.528 0 0 1 46.528-46.528h235.968a46.528 46.528 0 0 1 46.528 46.528v235.968a46.528 46.528 0 0 1-46.528 46.464z m31.424-246.656v164.096a4.672 4.672 0 0 0 4.672 4.672h164.032a4.672 4.672 0 0 0 4.672-4.672V637.824a4.672 4.672 0 0 0-4.672-4.672H638.144a4.672 4.672 0 0 0-4.608 4.544z m-447.296 246.656a46.528 46.528 0 0 1-46.528-46.528V601.856a46.528 46.528 0 0 1 46.528-46.528h236.032a46.528 46.528 0 0 1 46.528 46.528v235.968a46.528 46.528 0 0 1-46.528 46.464zM217.6 637.632v164.096a4.672 4.672 0 0 0 4.672 4.672h164.096a4.672 4.672 0 0 0 4.672-4.672V637.824a4.672 4.672 0 0 0-4.672-4.672H222.336a4.672 4.672 0 0 0-4.672 4.544z m384-168.96a46.528 46.528 0 0 1-46.528-46.528V186.24a46.528 46.528 0 0 1 46.784-46.528h235.968a46.528 46.528 0 0 1 46.528 46.528v236.032a46.528 46.528 0 0 1-46.528 46.464z m31.424-246.72v164.16a4.672 4.672 0 0 0 4.672 4.672h164.032a4.672 4.672 0 0 0 4.672-4.672V222.208a4.608 4.608 0 0 0-4.672-4.608H637.696a4.672 4.672 0 0 0-4.416 4.416zM186.176 468.736a46.528 46.528 0 0 1-46.528-46.528V186.24a46.528 46.528 0 0 1 46.528-46.528h236.032a46.528 46.528 0 0 1 46.528 46.528v236.032a46.528 46.528 0 0 1-46.528 46.464zM217.6 222.016v164.096a4.672 4.672 0 0 0 4.672 4.672h164.096a4.672 4.672 0 0 0 4.672-4.672V222.208a4.608 4.608 0 0 0-4.672-4.608H222.336a4.672 4.672 0 0 0-4.672 4.416z" /></svg>