<?xml version="1.0" encoding="UTF-8"?>
<svg width="15px" height="16px" viewBox="0 0 15 16" version="1.1" xmlns="http://www.w3.org/2000/svg" xmlns:xlink="http://www.w3.org/1999/xlink">
    <!-- Generator: Sketch 53.2 (72643) - https://sketchapp.com -->
    <title>date</title>
    <desc>Created with Sketch.</desc>
    <g id="Page-1" stroke="none" stroke-width="1" fill="none" fill-rule="evenodd">
        <g id="时间控件2" transform="translate(-500.000000, -294.000000)">
            <g id="编组-6备份-7" transform="translate(287.000000, 287.000000)">
                <g id="编组-3">
                    <g id="date" transform="translate(213.000000, 7.000000)">
                        <g>
                            <rect id="Rectangle" x="0" y="0" width="15" height="16"></rect>
                            <path d="M14.8594286,14.8594286 C14.8594286,15.1565714 14.7497143,15.4217143 14.5154286,15.656 C14.2811429,15.8902857 14.016,16 13.7188571,16 L1.14057143,16 C0.828571429,16 0.562285714,15.8902857 0.344,15.656 C0.109714286,15.4217143 1.687539e-13,15.1565714 1.687539e-13,14.8594286 L1.687539e-13,3.42171429 C1.687539e-13,3.12457143 0.109714286,2.85942857 0.344,2.62514286 C0.562285714,2.39085714 0.828571429,2.28114286 1.14057143,2.28114286 L2.28114286,2.28114286 L2.28114286,1.42171429 C2.28114286,1.03085714 2.42171429,0.702857143 2.70285714,0.421714286 C2.984,0.140571429 3.328,0 3.71885714,0 L4.28114286,0 C4.672,0 5.016,0.140571429 5.29714286,0.421714286 C5.57828571,0.702857143 5.71885714,1.03085714 5.71885714,1.42171429 L5.71885714,2.28114286 L9.14057143,2.28114286 L9.14057143,1.42171429 C9.14057143,1.03085714 9.28114286,0.702857143 9.56228571,0.421714286 C9.84342857,0.140571429 10.1874286,0 10.5782857,0 L11.1405714,0 C11.5314286,0 11.8754286,0.140571429 12.1565714,0.421714286 C12.4377143,0.702857143 12.5782857,1.03085714 12.5782857,1.42171429 L12.5782857,2.28114286 L13.7188571,2.28114286 C14.016,2.28114286 14.2811429,2.39085714 14.5154286,2.62514286 C14.7497143,2.85942857 14.8594286,3.12457143 14.8594286,3.42171429 L14.8594286,14.8594286 Z M11.4217143,1.42171429 C11.4217143,1.344 11.3908571,1.28114286 11.344,1.21828571 C11.2971429,1.17142857 11.2182857,1.14057143 11.1405714,1.14057143 L10.5782857,1.14057143 C10.5005714,1.14057143 10.4217143,1.17142857 10.3748571,1.21828571 C10.312,1.28114286 10.2811429,1.344 10.2811429,1.42171429 L10.2811429,4 C10.2811429,4.07771429 10.312,4.14057143 10.3748571,4.20342857 C10.4217143,4.25028571 10.5005714,4.28114286 10.5782857,4.28114286 L11.1405714,4.28114286 C11.2182857,4.28114286 11.2971429,4.25028571 11.344,4.20342857 C11.3908571,4.14057143 11.4217143,4.07771429 11.4217143,4 L11.4217143,1.42171429 Z M11.1405714,8.28114286 L13.7188571,8.28114286 L13.7188571,5.71885714 L11.1405714,5.71885714 L11.1405714,8.28114286 Z M7.71885714,8.28114286 L10.5782857,8.28114286 L10.5782857,5.71885714 L7.71885714,5.71885714 L7.71885714,8.28114286 Z M11.1405714,11.7188571 L13.7188571,11.7188571 L13.7188571,8.85942857 L11.1405714,8.85942857 L11.1405714,11.7188571 Z M4.57828571,1.42171429 C4.57828571,1.344 4.54742857,1.28114286 4.48457143,1.21828571 C4.43771429,1.17142857 4.35885714,1.14057143 4.28114286,1.14057143 L3.71885714,1.14057143 C3.64114286,1.14057143 3.56228571,1.17142857 3.51542857,1.21828571 C3.45371429,1.28114286 3.42171429,1.344 3.42171429,1.42171429 L3.42171429,4 C3.42171429,4.07771429 3.45371429,4.14057143 3.51542857,4.20342857 C3.56228571,4.25028571 3.64114286,4.28114286 3.71885714,4.28114286 L4.28114286,4.28114286 C4.35885714,4.28114286 4.43771429,4.25028571 4.48457143,4.20342857 C4.54742857,4.14057143 4.57828571,4.07771429 4.57828571,4 L4.57828571,1.42171429 Z M7.71885714,11.7188571 L10.5782857,11.7188571 L10.5782857,8.85942857 L7.71885714,8.85942857 L7.71885714,11.7188571 Z M11.1405714,14.8594286 L13.7188571,14.8594286 L13.7188571,12.2811429 L11.1405714,12.2811429 L11.1405714,14.8594286 Z M4.28114286,8.28114286 L7.14057143,8.28114286 L7.14057143,5.71885714 L4.28114286,5.71885714 L4.28114286,8.28114286 Z M7.71885714,14.8594286 L10.5782857,14.8594286 L10.5782857,12.2811429 L7.71885714,12.2811429 L7.71885714,14.8594286 Z M1.14057143,8.28114286 L3.71885714,8.28114286 L3.71885714,5.71885714 L1.14057143,5.71885714 L1.14057143,8.28114286 Z M4.28114286,11.7188571 L7.14057143,11.7188571 L7.14057143,8.85942857 L4.28114286,8.85942857 L4.28114286,11.7188571 Z M1.14057143,11.7188571 L3.71885714,11.7188571 L3.71885714,8.85942857 L1.14057143,8.85942857 L1.14057143,11.7188571 Z M4.28114286,14.8594286 L7.14057143,14.8594286 L7.14057143,12.2811429 L4.28114286,12.2811429 L4.28114286,14.8594286 Z M1.14057143,14.8594286 L3.71885714,14.8594286 L3.71885714,12.2811429 L1.14057143,12.2811429 L1.14057143,14.8594286 Z" fill="#FFFFFF"></path>
                        </g>
                    </g>
                </g>
            </g>
        </g>
    </g>
</svg>