<svg preserveAspectRatio="none" width="73px" height="69px" viewBox="0 0 73 69" version="1.1" xmlns:xlink="http://www.w3.org/1999/xlink" xmlns="http://www.w3.org/2000/svg">
  <defs>
    <filter filterUnits="userSpaceOnUse" color-interpolation-filters="sRGB" id="filter_1">
      <feFlood flood-opacity="0" result="BackgroundImageFix" />
      <feColorMatrix in="SourceAlpha" type="matrix" values="0 0 0 0 0 0 0 0 0 0 0 0 0 0 0 0 0 0 127 0" />
      <feOffset dx="0" dy="1" />
      <feGaussianBlur stdDeviation="3" />
      <feColorMatrix type="matrix" values="0 0 0 0 0.0627451 0 0 0 0 0.8235294 0 0 0 0 1 0 0 0 0.6 0" />
      <feBlend mode="normal" in2="BackgroundImageFix" result="effect0_dropShadow" />
      <feBlend mode="normal" in="SourceGraphic" in2="effect0_dropShadow" result="shape" />
    </filter>
    <filter filterUnits="userSpaceOnUse" color-interpolation-filters="sRGB" id="filter_2">
      <feFlood flood-opacity="0" result="BackgroundImageFix" />
      <feBlend mode="normal" in="SourceGraphic" in2="BackgroundImageFix" result="shape" />
      <feColorMatrix in="SourceAlpha" type="matrix" values="0 0 0 0 0 0 0 0 0 0 0 0 0 0 0 0 0 0 127 0" result="hardAlpha" />
      <feOffset dx="0" dy="0" />
      <feGaussianBlur stdDeviation="1.5" />
      <feComposite in2="hardAlpha" operator="arithmetic" k2="-1" k3="1" />
      <feColorMatrix type="matrix" values="0 0 0 0 0.16470589 0 0 0 0 0.84313726 0 0 0 0 1 0 0 0 1 0" />
      <feBlend mode="normal" in2="shape" result="effect0_innerShadow" />
    </filter>
    <path d="M42.0364 47.8535L42.0364 47.8555Q42.0364 47.977 42.0245 48.0978Q42.0126 48.2187 41.9889 48.3377Q41.9652 48.4568 41.9299 48.5731Q41.8947 48.6892 41.8482 48.8014Q41.8017 48.9136 41.7445 49.0207Q41.6873 49.1278 41.6198 49.2288Q41.5523 49.3297 41.4753 49.4236Q41.3983 49.5175 41.3124 49.6033Q41.2266 49.6892 41.1327 49.7662Q41.0388 49.8432 40.9378 49.9107Q40.8369 49.9782 40.7298 50.0354Q40.6227 50.0927 40.5105 50.1391Q40.3983 50.1856 40.2821 50.2208Q40.1659 50.2561 40.0468 50.2798Q39.9277 50.3035 39.8069 50.3154Q39.6861 50.3273 39.5646 50.3273L14.8354 50.3273Q14.7139 50.3273 14.5931 50.3154Q14.4722 50.3035 14.3532 50.2798Q14.2341 50.2561 14.1179 50.2208Q14.0017 50.1856 13.8895 50.1391Q13.7773 50.0927 13.6702 50.0354Q13.5631 49.9782 13.4621 49.9107Q13.3612 49.8433 13.2673 49.7662Q13.1734 49.6892 13.0876 49.6033Q13.0017 49.5175 12.9247 49.4236Q12.8477 49.3297 12.7802 49.2288Q12.7127 49.1278 12.6555 49.0207Q12.5983 48.9136 12.5518 48.8014Q12.5053 48.6892 12.4701 48.573Q12.4348 48.4568 12.4111 48.3378Q12.3874 48.2187 12.3755 48.0978Q12.3636 47.977 12.3636 47.8555L12.3636 47.8535Q12.3636 47.7321 12.3755 47.6113Q12.3874 47.4904 12.4111 47.3713Q12.4348 47.2522 12.4701 47.136Q12.5053 47.0198 12.5518 46.9076Q12.5983 46.7955 12.6555 46.6884Q12.7127 46.5813 12.7802 46.4803Q12.8477 46.3794 12.9247 46.2855Q13.0017 46.1916 13.0876 46.1058Q13.1735 46.0199 13.2673 45.9429Q13.3612 45.8658 13.4621 45.7984Q13.5631 45.7309 13.6702 45.6737Q13.7773 45.6164 13.8895 45.57Q14.0017 45.5235 14.1179 45.4883Q14.2341 45.453 14.3532 45.4293Q14.4722 45.4056 14.5931 45.3937Q14.7139 45.3818 14.8354 45.3818L39.5646 45.3818Q39.6861 45.3818 39.8069 45.3937Q39.9277 45.4056 40.0468 45.4293Q40.1659 45.453 40.2821 45.4883Q40.3983 45.5235 40.5105 45.57Q40.6227 45.6164 40.7298 45.6737Q40.8369 45.7309 40.9378 45.7984Q41.0388 45.8658 41.1327 45.9429Q41.2266 46.0199 41.3124 46.1058Q41.3983 46.1916 41.4753 46.2855Q41.5523 46.3794 41.6198 46.4803Q41.6873 46.5813 41.7445 46.6884Q41.8017 46.7955 41.8482 46.9076Q41.8947 47.0198 41.9299 47.136Q41.9652 47.2522 41.9889 47.3713Q42.0126 47.4904 42.0245 47.6113Q42.0364 47.7321 42.0364 47.8535ZM52.7 3.16256e-13C53.6389 3.16256e-13 54.4 0.766438 54.4 1.71189L54.4 39.5972C54.4 40.5427 53.6389 41.3091 52.7 41.3091L1.7 41.3091C0.761116 41.3091 0 40.5427 0 39.5972L0 1.71189C0 0.766438 0.761116 3.16256e-13 1.7 3.16256e-13L52.7 3.16256e-13ZM49.4545 4.94545L4.94545 4.94545L4.94545 36.3636L49.4545 36.3636L49.4545 4.94545ZM18.9576 19.0061C19.868 19.0061 20.6061 19.7441 20.6061 20.6545L20.6061 27.2485C20.6061 28.1589 19.868 28.897 18.9576 28.897L15.6606 28.897C14.7502 28.897 14.0121 28.1589 14.0121 27.2485L14.0121 20.6545C14.0121 19.7441 14.7502 19.0061 15.6606 19.0061L18.9576 19.0061ZM28.8485 15.7091C29.7589 15.7091 30.497 16.4471 30.497 17.3576L30.497 27.2485C30.497 28.1589 29.7589 28.897 28.8485 28.897L25.5515 28.897C24.6411 28.897 23.903 28.1589 23.903 27.2485L23.903 17.3576C23.903 16.4471 24.6411 15.7091 25.5515 15.7091L28.8485 15.7091ZM38.7394 12.4121C39.6498 12.4121 40.3879 13.1502 40.3879 14.0606L40.3879 27.2485C40.3879 28.1589 39.6498 28.897 38.7394 28.897L35.4424 28.897C34.532 28.897 33.7939 28.1589 33.7939 27.2485L33.7939 14.0606C33.7939 13.1502 34.532 12.4121 35.4424 12.4121L38.7394 12.4121Z" transform="translate(9 8)" id="path_1" />
  </defs>
  <g id="形状结合" filter="url(#filter_1)">
    <use stroke="none" fill="#10D2FF" xlink:href="#path_1" fill-rule="evenodd" filter="url(#filter_2)" />
  </g>
</svg>