<svg preserveAspectRatio="none" width="384px" height="8px" viewBox="0 0 384 8" version="1.1" xmlns:xlink="http://www.w3.org/1999/xlink" xmlns="http://www.w3.org/2000/svg">
  <defs>
    <linearGradient x1="0.9443149" y1="1" x2="0.05230254" y2="1" id="gradient_1">
      <stop offset="0" stop-color="#10D2FF" stop-opacity="0" />
      <stop offset="0.47683567" stop-color="#10D2FF" />
      <stop offset="1" stop-color="#10D2FF" stop-opacity="0" />
    </linearGradient>
    <linearGradient x1="1" y1="0.99611616" x2="0" y2="1" id="gradient_2">
      <stop offset="0" stop-color="#FFFFFF" stop-opacity="0" />
      <stop offset="0.49717224" stop-color="#10D2FF" />
      <stop offset="1" stop-color="#FFFFFF" stop-opacity="0" />
    </linearGradient>
    <filter filterUnits="userSpaceOnUse" color-interpolation-filters="sRGB" id="filter_1">
      <feFlood flood-opacity="0" result="BackgroundImageFix" />
      <feBlend mode="normal" in="SourceGraphic" in2="BackgroundImageFix" result="shape" />
      <feGaussianBlur stdDeviation="4.5" result="effect0_gaussianBlur" />
    </filter>
  </defs>
  <g id="矩形备份-68">
    <path d="M3.999 0L380.001 0Q380.197 0 380.393 0.0192563Q380.589 0.0385126 380.781 0.0768396Q380.974 0.115167 381.162 0.172196Q381.35 0.229224 381.531 0.304406Q381.713 0.379587 381.886 0.472197Q382.059 0.564807 382.223 0.673953Q382.386 0.783099 382.538 0.907731Q382.69 1.03236 382.829 1.17128Q382.968 1.3102 383.092 1.46206Q383.217 1.61393 383.326 1.77727Q383.435 1.94062 383.528 2.11388Q383.62 2.28715 383.696 2.46865Q383.771 2.65015 383.828 2.83815Q383.885 3.02615 383.923 3.21883Q383.961 3.41152 383.981 3.60703Q384 3.80254 384 3.999L384 4.001Q384 4.19746 383.981 4.39297Q383.961 4.58848 383.923 4.78117Q383.885 4.97385 383.828 5.16185Q383.771 5.34985 383.696 5.53135Q383.62 5.71285 383.528 5.88612Q383.435 6.05938 383.326 6.22272Q383.217 6.38607 383.092 6.53794Q382.968 6.6898 382.829 6.82872Q382.69 6.96764 382.538 7.09227Q382.386 7.2169 382.223 7.32605Q382.059 7.43519 381.886 7.5278Q381.713 7.62041 381.531 7.69559Q381.35 7.77078 381.162 7.8278Q380.974 7.88483 380.781 7.92316Q380.588 7.96149 380.393 7.98074Q380.197 8 380.001 8L3.999 8Q3.80254 8 3.60703 7.98074Q3.41152 7.96149 3.21883 7.92316Q3.02615 7.88483 2.83815 7.8278Q2.65015 7.77078 2.46865 7.69559Q2.28715 7.62041 2.11388 7.5278Q1.94062 7.43519 1.77727 7.32605Q1.61393 7.2169 1.46206 7.09227Q1.3102 6.96764 1.17128 6.82872Q1.03236 6.6898 0.907731 6.53794Q0.783099 6.38607 0.673953 6.22272Q0.564807 6.05938 0.472197 5.88612Q0.379587 5.71285 0.304406 5.53135Q0.229224 5.34985 0.172196 5.16185Q0.115167 4.97385 0.0768396 4.78117Q0.0385126 4.58848 0.0192563 4.39297Q0 4.19746 0 4.001L0 3.999Q0 3.80254 0.0192563 3.60703Q0.0385126 3.41152 0.0768396 3.21883Q0.115167 3.02615 0.172196 2.83815Q0.229224 2.65015 0.304406 2.46865Q0.379587 2.28715 0.472197 2.11388Q0.564807 1.94062 0.673953 1.77727Q0.783099 1.61393 0.907731 1.46206Q1.03236 1.3102 1.17128 1.17128Q1.3102 1.03236 1.46206 0.907731Q1.61393 0.783099 1.77727 0.673953Q1.94062 0.564807 2.11388 0.472197Q2.28715 0.379587 2.46865 0.304406Q2.65015 0.229224 2.83815 0.172196Q3.02615 0.115167 3.21883 0.0768396Q3.41152 0.0385126 3.60703 0.0192563Q3.80254 0 3.999 0L3.999 0Z" id="矩形备份-68" fill="url(#gradient_1)" fill-rule="evenodd" stroke="none" />
    <path d="M3.999 0L380.001 0Q380.197 0 380.393 0.0192563Q380.589 0.0385126 380.781 0.0768396Q380.974 0.115167 381.162 0.172196Q381.35 0.229224 381.531 0.304406Q381.713 0.379587 381.886 0.472197Q382.059 0.564807 382.223 0.673953Q382.386 0.783099 382.538 0.907731Q382.69 1.03236 382.829 1.17128Q382.968 1.3102 383.092 1.46206Q383.217 1.61393 383.326 1.77727Q383.435 1.94062 383.528 2.11388Q383.62 2.28715 383.696 2.46865Q383.771 2.65015 383.828 2.83815Q383.885 3.02615 383.923 3.21883Q383.961 3.41152 383.981 3.60703Q384 3.80254 384 3.999L384 4.001Q384 4.19746 383.981 4.39297Q383.961 4.58848 383.923 4.78117Q383.885 4.97385 383.828 5.16185Q383.771 5.34985 383.696 5.53135Q383.62 5.71285 383.528 5.88612Q383.435 6.05938 383.326 6.22272Q383.217 6.38607 383.092 6.53794Q382.968 6.6898 382.829 6.82872Q382.69 6.96764 382.538 7.09227Q382.386 7.2169 382.223 7.32605Q382.059 7.43519 381.886 7.5278Q381.713 7.62041 381.531 7.69559Q381.35 7.77078 381.162 7.8278Q380.974 7.88483 380.781 7.92316Q380.588 7.96149 380.393 7.98074Q380.197 8 380.001 8L3.999 8Q3.80254 8 3.60703 7.98074Q3.41152 7.96149 3.21883 7.92316Q3.02615 7.88483 2.83815 7.8278Q2.65015 7.77078 2.46865 7.69559Q2.28715 7.62041 2.11388 7.5278Q1.94062 7.43519 1.77727 7.32605Q1.61393 7.2169 1.46206 7.09227Q1.3102 6.96764 1.17128 6.82872Q1.03236 6.6898 0.907731 6.53794Q0.783099 6.38607 0.673953 6.22272Q0.564807 6.05938 0.472197 5.88612Q0.379587 5.71285 0.304406 5.53135Q0.229224 5.34985 0.172196 5.16185Q0.115167 4.97385 0.0768396 4.78117Q0.0385126 4.58848 0.0192563 4.39297Q0 4.19746 0 4.001L0 3.999Q0 3.80254 0.0192563 3.60703Q0.0385126 3.41152 0.0768396 3.21883Q0.115167 3.02615 0.172196 2.83815Q0.229224 2.65015 0.304406 2.46865Q0.379587 2.28715 0.472197 2.11388Q0.564807 1.94062 0.673953 1.77727Q0.783099 1.61393 0.907731 1.46206Q1.03236 1.3102 1.17128 1.17128Q1.3102 1.03236 1.46206 0.907731Q1.61393 0.783099 1.77727 0.673953Q1.94062 0.564807 2.11388 0.472197Q2.28715 0.379587 2.46865 0.304406Q2.65015 0.229224 2.83815 0.172196Q3.02615 0.115167 3.21883 0.0768396Q3.41152 0.0385126 3.60703 0.0192563Q3.80254 0 3.999 0L3.999 0Z" id="矩形备份-76" fill="url(#gradient_2)" fill-rule="evenodd" stroke="none" filter="url(#filter_1)" />
  </g>
</svg>