<svg preserveAspectRatio="none" width="73px" height="67px" viewBox="0 0 73 67" version="1.1" xmlns:xlink="http://www.w3.org/1999/xlink" xmlns="http://www.w3.org/2000/svg">
  <path d="M57.5151 0L4.42424 0C1.9808 0 0 2.07984 0 4.64545L0 39.597C0 42.1626 1.9808 44.2424 4.42424 44.2424L27.6515 44.2424L27.6515 48.6667L14.7717 48.6667Q14.6981 48.6667 14.6248 48.6739Q14.5515 48.6811 14.4793 48.6955Q14.4071 48.7098 14.3366 48.7312Q14.2661 48.7526 14.1981 48.7808Q14.13 48.8089 14.0651 48.8437Q14.0002 48.8784 13.9389 48.9193Q13.8777 48.9602 13.8208 49.0069Q13.7638 49.0536 13.7118 49.1057Q13.6597 49.1578 13.613 49.2147Q13.5663 49.2716 13.5254 49.3329Q13.4844 49.3941 13.4497 49.459Q13.415 49.524 13.3868 49.592Q13.3587 49.6601 13.3373 49.7305Q13.3159 49.801 13.3015 49.8732Q13.2872 49.9455 13.2799 50.0187Q13.2727 50.092 13.2727 50.1657L13.2727 53.804Q13.2727 53.8777 13.2799 53.951Q13.2872 54.0242 13.3015 54.0965Q13.3159 54.1687 13.3373 54.2392Q13.3586 54.3096 13.3868 54.3777Q13.415 54.4457 13.4497 54.5107Q13.4844 54.5756 13.5254 54.6368Q13.5663 54.6981 13.613 54.755Q13.6597 54.8119 13.7118 54.864Q13.7638 54.9161 13.8208 54.9628Q13.8777 55.0095 13.9389 55.0504Q14.0002 55.0913 14.0651 55.126Q14.13 55.1607 14.1981 55.1889Q14.2661 55.2171 14.3366 55.2385Q14.4071 55.2599 14.4793 55.2742Q14.5515 55.2886 14.6248 55.2958Q14.6981 55.303 14.7717 55.303L47.1677 55.303Q47.2413 55.303 47.3146 55.2958Q47.3879 55.2886 47.4601 55.2742Q47.5323 55.2599 47.6028 55.2385Q47.6733 55.2171 47.7413 55.1889Q47.8093 55.1607 47.8743 55.126Q47.9392 55.0913 48.0005 55.0504Q48.0617 55.0095 48.1186 54.9628Q48.1755 54.9161 48.2276 54.864Q48.2797 54.8119 48.3264 54.755Q48.3731 54.6981 48.414 54.6368Q48.4549 54.5756 48.4897 54.5107Q48.5244 54.4457 48.5526 54.3777Q48.5807 54.3096 48.6021 54.2392Q48.6235 54.1687 48.6379 54.0965Q48.6522 54.0242 48.6595 53.951Q48.6667 53.8777 48.6667 53.804L48.6667 50.1657Q48.6667 50.092 48.6594 50.0187Q48.6522 49.9455 48.6379 49.8732Q48.6235 49.801 48.6021 49.7305Q48.5807 49.6601 48.5526 49.592Q48.5244 49.524 48.4897 49.459Q48.4549 49.3941 48.414 49.3329Q48.3731 49.2716 48.3264 49.2147Q48.2797 49.1578 48.2276 49.1057Q48.1755 49.0536 48.1186 49.0069Q48.0617 48.9602 48.0005 48.9193Q47.9392 48.8784 47.8743 48.8437Q47.8093 48.8089 47.7413 48.7808Q47.6733 48.7526 47.6028 48.7312Q47.5323 48.7098 47.4601 48.6955Q47.3879 48.6811 47.3146 48.6739Q47.2413 48.6667 47.1677 48.6667L34.2879 48.6667L34.2879 44.2424L57.5151 44.2424C59.9586 44.2424 61.9394 42.1626 61.9394 39.597L61.9394 4.64545C61.9394 2.07984 59.9586 0 57.5151 0ZM6.63636 37.6061L6.63636 6.63636L55.303 6.63636L55.303 37.6061L6.63636 37.6061ZM12.0596 11.0606L27.7586 11.0606Q27.857 11.0606 27.9535 11.0798Q28.05 11.099 28.1409 11.1366Q28.2318 11.1743 28.3136 11.229Q28.3954 11.2836 28.465 11.3532Q28.5345 11.4228 28.5892 11.5046Q28.6439 11.5864 28.6815 11.6773Q28.7192 11.7682 28.7384 11.8647Q28.7576 11.9612 28.7576 12.0596L28.7576 18.9101Q28.7576 19.0085 28.7384 19.105Q28.7192 19.2015 28.6815 19.2924Q28.6439 19.3833 28.5892 19.4651Q28.5345 19.5469 28.465 19.6165Q28.3954 19.6861 28.3136 19.7407Q28.2318 19.7954 28.1409 19.833Q28.05 19.8707 27.9535 19.8899Q27.857 19.9091 27.7586 19.9091L12.0596 19.9091Q11.9612 19.9091 11.8647 19.8899Q11.7682 19.8707 11.6773 19.833Q11.5864 19.7954 11.5046 19.7407Q11.4228 19.6861 11.3532 19.6165Q11.2836 19.5469 11.229 19.4651Q11.1743 19.3833 11.1366 19.2924Q11.099 19.2015 11.0798 19.105Q11.0606 19.0085 11.0606 18.9101L11.0606 12.0596Q11.0606 11.9612 11.0798 11.8647Q11.099 11.7682 11.1366 11.6773Q11.1743 11.5864 11.229 11.5046Q11.2836 11.4228 11.3532 11.3532Q11.4228 11.2836 11.5046 11.229Q11.5864 11.1743 11.6773 11.1366Q11.7682 11.099 11.8647 11.0798Q11.9612 11.0606 12.0596 11.0606ZM49.8798 11.0606L34.1808 11.0606Q34.0824 11.0606 33.9859 11.0798Q33.8894 11.099 33.7985 11.1366Q33.7076 11.1743 33.6258 11.229Q33.544 11.2836 33.4744 11.3532Q33.4048 11.4228 33.3502 11.5046Q33.2955 11.5864 33.2579 11.6773Q33.2202 11.7682 33.201 11.8647Q33.1818 11.9612 33.1818 12.0596L33.1818 18.9101Q33.1818 19.0085 33.201 19.105Q33.2202 19.2015 33.2579 19.2924Q33.2955 19.3833 33.3502 19.4651Q33.4048 19.5469 33.4744 19.6165Q33.544 19.6861 33.6258 19.7407Q33.7076 19.7954 33.7985 19.833Q33.8894 19.8707 33.9859 19.8899Q34.0824 19.9091 34.1808 19.9091L49.8798 19.9091Q49.9782 19.9091 50.0747 19.8899Q50.1712 19.8707 50.2621 19.833Q50.353 19.7954 50.4348 19.7407Q50.5166 19.6861 50.5862 19.6165Q50.6558 19.5469 50.7104 19.4651Q50.7651 19.3833 50.8027 19.2924Q50.8404 19.2015 50.8596 19.105Q50.8788 19.0085 50.8788 18.9101L50.8788 12.0596Q50.8788 11.9612 50.8596 11.8647Q50.8404 11.7682 50.8027 11.6773Q50.7651 11.5864 50.7104 11.5046Q50.6558 11.4228 50.5862 11.3532Q50.5166 11.2836 50.4348 11.229Q50.353 11.1743 50.2621 11.1366Q50.1712 11.099 50.0747 11.0798Q49.9782 11.0606 49.8798 11.0606ZM27.7586 24.3333L12.0596 24.3333Q11.9612 24.3333 11.8647 24.3525Q11.7682 24.3717 11.6773 24.4094Q11.5864 24.447 11.5046 24.5017Q11.4228 24.5564 11.3532 24.6259Q11.2836 24.6955 11.229 24.7773Q11.1743 24.8591 11.1366 24.95Q11.099 25.0409 11.0798 25.1374Q11.0606 25.2339 11.0606 25.3323L11.0606 32.1828Q11.0606 32.2812 11.0798 32.3777Q11.099 32.4742 11.1366 32.5651Q11.1743 32.656 11.229 32.7378Q11.2836 32.8196 11.3532 32.8892Q11.4228 32.9588 11.5046 33.0135Q11.5864 33.0681 11.6773 33.1058Q11.7682 33.1434 11.8647 33.1626Q11.9612 33.1818 12.0596 33.1818L27.7586 33.1818Q27.857 33.1818 27.9535 33.1626Q28.05 33.1434 28.1409 33.1058Q28.2318 33.0681 28.3136 33.0135Q28.3954 32.9588 28.465 32.8892Q28.5345 32.8196 28.5892 32.7378Q28.6439 32.656 28.6815 32.5651Q28.7192 32.4742 28.7384 32.3777Q28.7576 32.2812 28.7576 32.1828L28.7576 25.3323Q28.7576 25.2339 28.7384 25.1374Q28.7192 25.0409 28.6815 24.95Q28.6439 24.8591 28.5892 24.7773Q28.5345 24.6955 28.465 24.6259Q28.3954 24.5564 28.3136 24.5017Q28.2318 24.447 28.1409 24.4094Q28.05 24.3717 27.9535 24.3525Q27.857 24.3333 27.7586 24.3333ZM34.1808 24.3333L49.8798 24.3333Q49.9782 24.3333 50.0747 24.3525Q50.1712 24.3717 50.2621 24.4094Q50.353 24.447 50.4348 24.5017Q50.5166 24.5564 50.5862 24.6259Q50.6558 24.6955 50.7104 24.7773Q50.7651 24.8591 50.8027 24.95Q50.8404 25.0409 50.8596 25.1374Q50.8788 25.2339 50.8788 25.3323L50.8788 32.1828Q50.8788 32.2812 50.8596 32.3777Q50.8404 32.4742 50.8027 32.5651Q50.7651 32.656 50.7104 32.7378Q50.6558 32.8196 50.5862 32.8892Q50.5166 32.9588 50.4348 33.0135Q50.353 33.0681 50.2621 33.1058Q50.1712 33.1434 50.0747 33.1626Q49.9782 33.1818 49.8798 33.1818L34.1808 33.1818Q34.0824 33.1818 33.9859 33.1626Q33.8894 33.1434 33.7985 33.1058Q33.7076 33.0681 33.6258 33.0135Q33.544 32.9588 33.4744 32.8892Q33.4048 32.8196 33.3502 32.7378Q33.2955 32.656 33.2579 32.5651Q33.2202 32.4742 33.201 32.3777Q33.1818 32.2812 33.1818 32.1828L33.1818 25.3323Q33.1818 25.2339 33.201 25.1374Q33.2202 25.0409 33.2579 24.95Q33.2955 24.8591 33.3502 24.7773Q33.4048 24.6955 33.4744 24.6259Q33.544 24.5564 33.6258 24.5017Q33.7076 24.447 33.7985 24.4094Q33.8894 24.3717 33.9859 24.3525Q34.0824 24.3333 34.1808 24.3333Z" transform="translate(0 11.060547)" fill="#FFFFFF" fill-rule="evenodd" stroke="none" />
  <path d="M57.5151 -2.04335e-13L4.42424 -2.04335e-13C1.9808 -2.04335e-13 -1.17885e-14 2.07984 -1.17885e-14 4.64545L-1.17885e-14 6.63636L55.303 6.63636L55.303 44.2424L57.5151 44.2424C59.9586 44.2424 61.9394 42.1626 61.9394 39.597L61.9394 4.64545C61.9394 2.07984 59.9586 -2.04335e-13 57.5151 -2.04335e-13Z" transform="translate(11.060547 0)" fill="#FFFFFF" fill-rule="evenodd" stroke="none" />
</svg>