<svg preserveAspectRatio="none" width="3552px" height="2504px" viewBox="0 0 3552 2504" version="1.1" xmlns:xlink="http://www.w3.org/1999/xlink" xmlns="http://www.w3.org/2000/svg">
  <defs>
    <linearGradient x1="1" y1="0" x2="0" y2="1" id="gradient_1">
      <stop offset="0" stop-color="#00C7FF" />
      <stop offset="0.10353103" stop-color="#00FFFF" />
      <stop offset="0.20057067" stop-color="#00C8FF" />
      <stop offset="0.2834214" stop-color="#00FFFF" />
      <stop offset="0.37192366" stop-color="#00C8FF" />
      <stop offset="0.46225354" stop-color="#00FFFF" />
      <stop offset="0.5450334" stop-color="#00C7FF" />
      <stop offset="0.622721" stop-color="#00FFFF" />
      <stop offset="0.6965076" stop-color="#00C8FF" />
      <stop offset="0.7822206" stop-color="#00FFFF" />
      <stop offset="0.8507903" stop-color="#00C8FF" />
      <stop offset="0.9251703" stop-color="#00FFFF" />
      <stop offset="1" stop-color="#00C8FF" />
    </linearGradient>
    <path d="M2371.95 538.48C2366.34 538.48 2366.51 531.783 2363.56 530.439C2363.56 530.439 2362.04 530.546 2360.29 530.638C2359.91 531.219 2359.12 531.424 2358.42 531.602C2357.2 531.915 2356.3 532.147 2358.6 534.213C2359.79 535.285 2361.98 536.909 2364.47 538.752C2370.46 543.199 2378.17 548.917 2377.76 551.209C2377.17 554.451 2377.35 563.983 2372.11 567.361C2369.05 569.332 2364.05 567.898 2357.6 566.052C2352.99 564.729 2347.63 563.195 2341.73 562.55C2333.33 561.633 2324.18 561.754 2316.33 561.858C2310.95 561.93 2306.19 561.993 2302.71 561.707C2300.36 561.513 2297.61 560.905 2294.54 560.229C2286.51 558.455 2276.36 556.215 2265.81 559.788C2251.25 564.716 2219.55 562.409 2214.12 561.707C2208.69 560.999 2170.77 556.919 2164.94 557.06C2159.12 557.2 2110.94 566.213 2107.25 566.494C2106.83 566.527 2106.13 566.628 2105.17 566.766C2097.76 567.835 2075.39 571.06 2055.44 560.578C2032.92 548.744 2027.37 542.538 2001.77 542.538C1976.17 542.538 1984.74 546.777 1959.31 557.06C1933.88 567.342 1937.15 572.522 1912.49 575.619C1902.23 576.909 1894.1 578.667 1887.39 580.119C1877.97 582.156 1871.34 583.588 1865.56 582.273C1855.66 580.019 1822.25 575.695 1816.81 574.847C1811.38 574.004 1796.5 573.578 1792.22 574.847C1789.04 575.79 1779.66 574.051 1772.35 572.697C1769.86 572.235 1767.61 571.818 1765.93 571.568C1759.33 570.58 1730.64 563.792 1721.9 557.876C1713.17 551.959 1702.18 551.424 1689.95 551.986C1677.71 552.548 1659.46 550.716 1650.34 549.592C1641.21 548.463 1620.44 546.491 1611.51 553.256C1602.58 560.016 1592.48 567.905 1586.27 571.142C1580.06 574.383 1575.2 576.496 1569.38 576.777C1563.55 577.058 1555.98 578.328 1539.48 586.779C1522.98 595.23 1500.26 604.951 1493.27 606.783C1492.44 607.001 1491.47 607.279 1490.38 607.595C1482.28 609.928 1467.11 614.302 1445.9 611.571C1441.7 611.031 1437.96 610.534 1434.59 610.087C1418.62 607.97 1411.15 606.979 1404.74 607.907C1396.97 609.036 1354.26 615.515 1348.63 618.049C1343 620.584 1330.57 626.22 1327.27 626.641C1323.97 627.068 1315.24 627.77 1302.03 624.247C1288.84 620.729 1269.61 617.347 1262.82 616.785C1256.02 616.218 1230.4 610.165 1226.12 606.075C1221.85 601.99 1214.09 600.585 1211.95 599.596C1209.81 598.613 1197.58 592.977 1190.79 588.33C1183.99 583.678 1182.83 579.879 1164.58 577.34C1146.33 574.805 1132.35 572.552 1128.66 570.439C1127 569.491 1125.9 568.599 1125.18 567.904C1117.8 568.39 1108.94 567.007 1099.35 564.205L1098.79 564.039L1097.66 563.699C1097.48 563.641 1097.29 563.583 1097.1 563.524L1095.98 563.167L1094.86 562.801C1094.68 562.74 1094.49 562.677 1094.31 562.615L1093.2 562.237L1092.11 561.853L1091.03 561.463L1089.96 561.069L1088.91 560.672L1087.89 560.273L1086.89 559.873C1086.72 559.806 1086.56 559.74 1086.39 559.673L1085.43 559.274L1084.5 558.878L1083.59 558.484L1082.73 558.096C1082.58 558.031 1082.44 557.967 1082.31 557.903L1081.49 557.523L1080.72 557.15L1080 556.786C1079.88 556.726 1079.76 556.666 1079.65 556.607L1078.99 556.258L1078.38 555.919L1078.09 555.755C1076.32 554.723 1074.94 554.189 1073.72 554.026C1073.05 558.598 1069.99 566.512 1064.41 566.332C1061.8 566.245 1059.11 565.732 1056.52 565.24C1051.9 564.36 1047.64 563.548 1044.88 565.38C1041.6 567.557 1035.81 567.104 1030.16 566.662C1028.41 566.524 1026.66 566.387 1025.02 566.332C1023.97 566.295 1022.77 566.189 1021.47 566.075C1014.14 565.428 1003.81 564.517 1001.84 574.425C999.524 586.09 995.55 605.847 982.636 611.798C969.729 617.748 961.453 617.748 966.412 609.418C971.378 601.085 985.947 583.706 987.273 574.901C987.318 574.608 987.364 574.304 987.412 573.99C988.802 564.868 991.448 547.495 978.005 553.475C967.572 558.118 963.739 557.596 960.042 556.903C957.176 556.367 952.732 554.062 952.03 553.993C942.781 553.069 938.312 548.07 950.523 548.001C952.544 547.99 954.702 548.072 956.849 548.153C965.254 548.472 973.495 548.784 972.705 543.478C971.713 536.812 970.721 532.53 950.523 527.767C930.325 523.004 923.344 521.882 923.344 521.882C923.344 521.882 910.422 514.849 918.86 513.301C918.426 512.776 917.991 512.177 917.533 511.493L916.208 509.442L915.878 508.943L915.571 508.493C915.521 508.421 915.471 508.349 915.421 508.279C913.11 505.013 910.516 503.053 906.141 501.952L905.712 501.848C902.725 501.152 900.579 500.355 897.585 498.912L896.609 498.435L894.653 497.454C890.487 495.376 887.435 494.247 882.824 493.376L881.848 493.198L880.478 492.961L879.528 492.806L878.323 492.623L877.436 492.5L876.234 492.351L874.962 492.212L873.566 492.075L871.568 491.899L867.778 491.587L866.568 491.475L865.829 491.398C865.71 491.385 865.593 491.371 865.478 491.358L864.81 491.274C864.702 491.26 864.596 491.245 864.491 491.231L863.881 491.138C863.584 491.09 863.3 491.04 863.024 490.986L862.484 490.872C862.307 490.833 862.133 490.792 861.962 490.749L861.452 490.614C860.948 490.473 860.454 490.312 859.948 490.127C859.781 490.066 859.616 490.003 859.451 489.937C859.193 489.835 858.843 489.742 858.409 489.657L858.018 489.587C857.949 489.576 857.879 489.565 857.807 489.554L857.357 489.49C857.279 489.48 857.199 489.47 857.118 489.46L856.346 489.375L855.496 489.3L854.573 489.233L853.581 489.175L852.523 489.125L851.406 489.084L850.63 489.061L849.01 489.025L847.739 489.006L845.98 488.993L843.693 488.995L841.326 489.015L838.41 489.061L836.36 489.107L835.317 489.135C834.273 489.164 833.227 489.196 832.186 489.233L830.264 489.304L828.513 489.377L826.788 489.456L825.096 489.541L823.445 489.631L821.843 489.726L820.296 489.826L818.814 489.931C818.332 489.966 817.861 490.002 817.404 490.039C817.104 490.063 816.8 490.095 816.489 490.136L816.177 490.184L815.777 490.255L815.041 490.401L813.867 490.65L811.887 491.09L807.473 492.1L806.796 492.238L805.623 492.463C801.876 493.157 797.808 493.658 792.895 493.968L791.314 494.06C787.218 494.278 784.814 495.046 783.601 496.232C782.832 496.984 782.514 497.841 782.315 499.543L782.159 501.103C781.786 504.488 781.005 506.127 778.381 507.47C778.105 507.612 777.797 507.76 777.461 507.915L776.751 508.233L775.968 508.567C775.695 508.681 775.411 508.797 775.115 508.916L774.195 509.278L773.213 509.654L772.17 510.041L771.071 510.439C770.884 510.506 770.694 510.574 770.502 510.642L769.325 511.054L768.099 511.474L766.83 511.902L765.519 512.336L764.17 512.775L762.083 513.441L760.654 513.889L758.464 514.563L756.976 515.013L754.713 515.685L753.188 516.131L751.653 516.573L749.342 517.227L747.799 517.656L746.259 518.077L744.725 518.491L743.2 518.895L741.688 519.29L740.192 519.673L738.716 520.044L737.262 520.402L735.835 520.746L734.437 521.074L733.072 521.387L731.743 521.682L730.454 521.958L729.208 522.216L728.009 522.453L726.859 522.669C726.485 522.737 726.119 522.801 725.763 522.862L724.723 523.032C722.028 523.453 719.973 523.614 718.844 523.428C715.688 522.907 714.006 523.293 713.718 523.99C713.373 524.821 714.232 526.781 716.521 529.332C717.7 530.645 719.909 530.854 723.463 530.127L723.98 530.017L724.52 529.894L725.749 529.593L728.19 528.975L729.114 528.752L729.702 528.62L730.212 528.515L730.515 528.46L730.793 528.416L731.049 528.383L731.286 528.36L731.51 528.346L731.722 528.342L731.927 528.346L732.128 528.358L732.33 528.378L732.534 528.405L732.746 528.438C735.412 528.89 735.875 531.197 734.501 534.574C733.317 537.485 730.465 540.008 725.841 542.497L725.075 542.901C724.554 543.17 724.013 543.438 723.451 543.707L722.591 544.111C722.3 544.246 722.003 544.38 721.701 544.515L720.778 544.921C720.622 544.989 720.464 545.056 720.305 545.124L719.336 545.532L718.334 545.942L717.3 546.354Q717.038 546.457 716.772 546.56L715.69 546.976L714.576 547.395L713.652 547.736L710.747 548.771L701.299 552.103L700.244 552.5L699.592 552.754L698.981 552.999L698.143 553.349L697.398 553.677L696.953 553.885L696.549 554.083L696.187 554.272C695.504 554.639 695.07 554.948 694.884 555.196L694.775 555.351L694.428 555.879L693.346 557.587L691.29 560.853L690.478 562.121L689.917 562.973L689.679 563.323L689.573 563.477C685.386 569.44 680.96 573.025 675.361 573.732C673.714 573.939 671.913 574.824 669.836 576.402L669.327 576.799L668.854 577.179L668.544 577.437L668.162 577.761L667.575 578.279L666.95 578.852L666.266 579.499L665.501 580.239L664.634 581.092L661.826 583.894L660.848 584.859L660.24 585.45L659.385 586.265L658.85 586.764L658.339 587.232L657.847 587.669L657.373 588.08C657.295 588.146 657.218 588.212 657.141 588.276L656.687 588.651L656.241 589.005L655.802 589.342L655.365 589.662C655.219 589.767 655.073 589.87 654.927 589.97L654.486 590.268L654.037 590.558C650.584 592.745 647.319 593.447 644.086 592.35L643.774 592.238C635.275 589.045 624.992 592.216 615.394 598.972L614.951 599.286C607.122 604.888 592.073 605.882 586.794 600.686C583.448 597.388 573.694 599.002 568.491 602.559L568.234 602.739C566.933 603.668 565.49 604.574 563.968 605.411L563.201 605.823C557.27 608.934 550.323 610.901 545.841 609.083L539.56 606.488L538.443 606.039L537.385 605.622C537.212 605.554 537.042 605.489 536.873 605.424L535.88 605.048L535.396 604.868C530.176 602.951 526.296 602.061 523.778 602.362C521.003 602.694 518.614 603.865 515.512 606.2L514.631 606.884L510.617 610.084L510.028 610.541C509.941 610.607 509.856 610.673 509.77 610.737C507.903 612.159 506.157 612.873 503.51 613.215L502.928 613.283C502.829 613.293 502.728 613.303 502.626 613.313L501.999 613.365L501.339 613.408L500.643 613.441L499.91 613.467L499.137 613.485L497.898 613.501L495.318 613.512L494.561 613.521L493.856 613.535L493.197 613.554L492.278 613.593L491.704 613.627L491.151 613.668C491.061 613.675 490.971 613.683 490.881 613.691L490.596 613.719C492.081 615.328 493.089 617.156 492.994 618.549C492.809 621.179 489.839 620.624 486.126 619.929C484.78 619.678 483.337 619.408 481.893 619.265C479.091 618.989 477.437 620.161 475.574 621.481C473.833 622.715 471.908 624.08 468.689 624.513C464.984 625.011 464.515 624.349 463.706 623.206C463.061 622.296 462.201 621.082 459.319 619.906C452.825 617.249 436.389 614.71 429.879 621.026C423.369 627.342 421.037 631.081 411.086 635.651C403.183 639.277 396.504 639.617 390.646 639.915C389.127 639.992 387.664 640.066 386.25 640.194C384.602 640.343 383.089 640.4 381.639 640.455C377.037 640.627 373.063 640.777 367.403 643.775C364.614 645.25 362.109 645.242 359.472 645.233C355.065 645.219 350.287 645.204 343.191 652.103C331.848 663.131 326.121 663.131 319.203 657.856C316.885 656.089 315.254 654.498 314.011 653.286C311.545 650.88 310.604 649.963 308.847 652.103C306.793 654.605 308.852 657.974 310.745 661.071C311.287 661.958 311.816 662.822 312.23 663.637C314.084 667.295 310.391 672.947 302.692 676.428C293.132 679.26 287.435 684.049 282.984 687.792C279.266 690.918 276.417 693.313 272.912 693.226C268.923 693.126 262.041 694.448 255.002 695.8C248.45 697.058 241.763 698.342 237.153 698.529C232.122 698.731 227.541 695.909 223.128 693.191C219.156 690.745 215.321 688.383 211.417 688.383C202.459 688.383 196.546 697.319 192.676 699.807C182.343 706.455 177.167 708.054 168.38 709.832C163.879 710.742 156.938 710.363 149.541 709.959C142.481 709.573 135.006 709.165 128.838 709.832C123.892 710.365 119.149 711.943 114.52 713.483C107.326 715.876 100.405 718.179 93.4223 716.326C81.9464 713.28 76.2279 707.592 63.9895 704.266C51.7512 700.944 48.6623 702.711 42.877 706.746C37.0917 710.781 34.9446 713.347 25.2065 714.344C15.4685 715.342 0 709.832 0 709.832L0 706.36C28.167 716.468 35.408 708.563 40.2877 703.235C41.662 701.735 42.8491 700.439 44.2636 699.807C50.7002 696.934 57.0439 696.939 62.2649 698.529C74.4386 702.239 85.5852 711.614 99.5876 712.194C104.17 712.384 110.058 710.475 115.978 708.556C122.469 706.452 128.997 704.336 133.881 704.962C143.218 706.151 152.164 706.627 171.83 704.266C191.496 701.904 198.01 684.839 210.035 682.806C216.433 681.724 220.05 684.522 223.741 687.377C226.989 689.888 230.295 692.445 235.602 692.445C246.948 692.445 264.264 687.409 270.634 687.409C277.004 687.409 280.526 680.092 293.904 674.582C307.283 669.071 305.392 669.216 307.735 666.411C308.98 664.92 307.629 662.515 306.199 659.971C304.938 657.727 303.616 655.374 303.961 653.445C304.704 649.333 307.47 647.68 310.711 647.68C313.951 647.68 320.118 656.14 327.129 657.856C331.759 658.99 334.817 654.688 337.353 651.118C338.658 649.283 339.824 647.641 340.996 647.032C344.453 645.241 348.524 643.248 355.186 642.172C361.848 641.101 365.5 638.709 372.408 635.664C377.226 633.541 382.379 633.97 387.065 634.36C389.09 634.529 391.028 634.69 392.814 634.635C398.733 634.457 403.579 632.698 407.332 629.926C411.086 627.154 418.161 624.513 421.251 619.906C424.341 615.298 426.84 612.839 433.25 611.052C439.415 609.33 442.544 610.595 445.891 611.949C448.828 613.136 451.932 614.391 457.4 613.757C462.223 613.201 463.237 613.674 465.576 614.764C466.227 615.067 466.98 615.418 467.946 615.808C471.277 617.149 475.728 614.388 479.304 612.169C480.492 611.431 481.584 610.754 482.506 610.307C484.043 609.564 486.156 610.244 488.083 611.55L488 611.051L488.586 610.958C488.682 610.944 488.778 610.93 488.873 610.916L489.441 610.839C489.535 610.828 489.63 610.816 489.724 610.805L490.29 610.743L490.863 610.69L491.451 610.646C491.55 610.639 491.651 610.633 491.752 610.627L492.374 610.594L493.028 610.567L493.72 610.547L494.457 610.532L495.247 610.522L498.243 610.508L499.37 610.49L500.068 610.47C500.181 610.466 500.292 610.462 500.401 610.458L501.04 610.427L501.641 610.39L502.208 610.343C502.392 610.327 502.57 610.308 502.743 610.288L503.247 610.224C505.209 609.945 506.504 609.423 507.786 608.482L508.194 608.173L508.934 607.596L512.792 604.52L513.7 603.815C517.188 601.19 520.024 599.8 523.42 599.393C526.362 599.042 530.263 599.872 535.394 601.687L536.436 602.063L536.934 602.248L537.951 602.633L539.009 603.045L540.117 603.486L543.135 604.726L546.974 606.315C551.401 608.11 560.483 604.493 566.179 600.524L566.48 600.311C572.565 595.947 583.841 593.96 588.694 598.36L588.907 598.561C592.991 602.581 606.442 601.693 613.197 596.859C623.505 589.469 634.703 585.86 644.413 589.288L644.835 589.441C647.292 590.365 649.563 589.978 652.566 587.962L653.046 587.63C653.209 587.515 653.373 587.395 653.54 587.271L654.047 586.884Q654.175 586.783 654.306 586.68L654.835 586.251L655.38 585.793L655.941 585.307L656.52 584.793L657.117 584.249L657.734 583.675L658.369 583.072L659.026 582.439L659.704 581.775L660.404 581.081L661.684 579.8L663.132 578.364L663.919 577.597L664.625 576.923L665.061 576.516L665.676 575.957L666.069 575.611L666.454 575.28L666.839 574.958L667.426 574.484C667.492 574.431 667.559 574.378 667.627 574.325C670.117 572.369 672.382 571.182 674.644 570.815L674.983 570.766C679.438 570.203 683.172 567.255 686.829 562.16L687.217 561.612L687.591 561.054L688.2 560.117L691.532 554.842L692.159 553.871L692.34 553.601L692.473 553.413C693.042 552.652 694.052 551.952 695.661 551.179L696.189 550.933L696.758 550.681C696.954 550.596 697.158 550.509 697.369 550.422L698.022 550.155L698.72 549.88L699.464 549.595L700.737 549.125L712.219 545.073L712.964 544.803L714.062 544.393L715.128 543.988C715.303 543.92 715.476 543.853 715.648 543.786L716.666 543.384L717.65 542.985L718.603 542.589L719.523 542.195C719.674 542.13 719.823 542.064 719.971 541.999L720.843 541.608C720.985 541.543 721.126 541.479 721.266 541.414L722.089 541.026L722.88 540.641C723.267 540.448 723.642 540.256 724.005 540.065L724.714 539.683C728.526 537.586 730.864 535.547 731.717 533.452C732.11 532.487 732.271 531.809 732.266 531.44L732.263 531.387L732.106 531.366L731.965 531.354C731.941 531.352 731.917 531.351 731.892 531.35L731.736 531.349C731.709 531.349 731.682 531.35 731.654 531.351L731.476 531.363L731.279 531.384L730.94 531.434L730.68 531.48L730.388 531.538L729.885 531.648L729.071 531.84L727.489 532.236L726.137 532.58L725.495 532.737L724.905 532.875L724.344 532.998L724.068 533.055C719.554 533.979 716.396 533.681 714.281 531.323C708.165 524.508 710.042 519.301 718.497 520.357L719.051 520.434C719.145 520.448 719.24 520.463 719.335 520.479C720.273 520.633 722.031 520.489 724.372 520.118L725.339 519.957L726.365 519.773C726.541 519.74 726.719 519.707 726.899 519.672L728.006 519.456L729.164 519.218C729.361 519.177 729.56 519.134 729.761 519.092L730.988 518.825L732.257 518.539L733.564 518.237L734.906 517.919L736.281 517.585L737.683 517.237L739.832 516.691L742.026 516.118L743.508 515.724L745.001 515.321L746.502 514.909L748.762 514.279L751.02 513.636L752.519 513.202L754.751 512.545L756.951 511.886L758.394 511.446L760.516 510.788L761.897 510.353L763.91 509.706L765.207 509.281L766.465 508.863L767.68 508.451L768.849 508.048L769.969 507.653L771.036 507.269C771.209 507.206 771.38 507.143 771.548 507.081L772.529 506.714L773.449 506.359L774.304 506.018C775.399 505.573 776.312 505.167 777.008 504.811C778.388 504.105 778.848 503.327 779.118 501.252L779.177 500.749C779.186 500.661 779.195 500.572 779.205 500.48L779.265 499.83L779.321 499.309L779.39 498.806L779.471 498.321C780.326 493.716 783.125 491.57 790.755 491.097L791.933 491.031L793.447 490.936C798.401 490.597 802.45 490.055 806.205 489.306L806.946 489.154L811.414 488.131L813.296 487.714L814.436 487.474L815.177 487.327L815.783 487.219L816.097 487.172C816.458 487.124 816.812 487.087 817.163 487.059L818.652 486.944L820.206 486.834L821.819 486.729L823.483 486.629L825.191 486.535L826.936 486.447L829.605 486.327L831.41 486.256L832.473 486.218C836.268 486.088 840.107 486.009 843.693 486L845.144 486L846.534 486.008L848.329 486.031L849.628 486.057L850.469 486.08L851.69 486.121L852.857 486.171L854.325 486.251L855.017 486.298L855.68 486.349L856.618 486.433L857.202 486.495L857.754 486.562L858.27 486.633L858.75 486.709C858.904 486.735 859.052 486.762 859.193 486.789L859.597 486.875C859.917 486.948 860.196 487.026 860.43 487.11L860.774 487.242L860.984 487.321C861.129 487.374 861.273 487.424 861.418 487.473L861.852 487.613C861.998 487.658 862.144 487.701 862.292 487.741L862.741 487.859C863.045 487.934 863.359 488.003 863.69 488.067L864.2 488.159L864.74 488.244L865.316 488.324L865.932 488.4C866.038 488.413 866.147 488.425 866.257 488.437L866.943 488.508L867.683 488.577L872.705 488.996L874.255 489.137L875.643 489.276L876.609 489.384L877.535 489.498L878.445 489.62L879.361 489.754L879.986 489.851L880.962 490.01L882.746 490.321C887.807 491.226 891.139 492.397 895.453 494.511L897.449 495.509C900.917 497.251 903.018 498.116 905.969 498.835L906.396 498.937C911.8 500.196 915.091 502.62 917.877 506.557L918.205 507.03L918.545 507.536L919.838 509.539C921.03 511.364 921.923 512.391 923.012 513.001C938.542 512.917 983.782 518.337 994.886 524.912C998.765 527.207 1002.41 530.407 1005.95 533.518C1012.69 539.438 1019.07 545.038 1026.01 543.478C1029.39 542.718 1031.82 541.644 1033.8 540.773C1038.02 538.911 1040.14 537.974 1044.88 543.003C1051.83 550.38 1055.47 551.808 1055.47 546.574C1055.47 546.179 1055.47 545.732 1055.46 545.242C1055.39 539.227 1055.23 526.775 1064.41 526.34C1074.34 525.859 1076 529.195 1076 532.29C1076 535.385 1074.02 540.143 1072.69 541.811C1071.38 543.459 1072.66 549.062 1073.65 551.029C1075.33 551.167 1077.12 551.786 1079.24 552.978L1079.62 553.194C1079.79 553.297 1079.98 553.402 1080.17 553.509L1080.78 553.836L1081.43 554.174L1082.13 554.523L1082.87 554.88L1083.65 555.245C1083.78 555.306 1083.92 555.368 1084.05 555.43L1084.89 555.804L1085.76 556.184L1086.67 556.567L1087.6 556.952L1088.56 557.339C1088.72 557.403 1088.89 557.468 1089.05 557.532L1090.05 557.919L1091.06 558.305C1091.23 558.369 1091.41 558.432 1091.58 558.496L1092.62 558.877C1092.8 558.94 1092.97 559.003 1093.15 559.066L1094.21 559.44C1094.39 559.502 1094.57 559.563 1094.75 559.624L1095.83 559.989L1096.92 560.345C1097.28 560.462 1097.65 560.578 1098.01 560.692L1099.11 561.029C1099.47 561.14 1099.84 561.249 1100.2 561.355C1110.87 564.473 1120.56 565.763 1127.99 564.612L1128.49 564.532L1128.54 564.846C1132.7 563.418 1138.81 561.542 1142.83 561.285C1143.32 561.254 1143.82 561.22 1144.32 561.186C1150.6 560.757 1157.81 560.265 1163.03 563.398C1168.66 566.776 1181.08 574.805 1188.07 577.48C1195.06 580.16 1200.3 582.132 1203.99 582.273C1207.68 582.413 1213.7 583.537 1218.55 586.498C1223.4 589.454 1238.55 598.051 1242.82 599.596C1247.09 601.147 1261.07 605.373 1266.9 605.092C1272.72 604.811 1285.34 604.384 1291.36 606.783C1297.38 609.177 1303.2 611.571 1305.33 612.7C1305.55 612.811 1305.81 612.967 1306.13 613.154C1309.04 614.85 1316.3 619.082 1325.92 615.656C1327.93 614.938 1330.63 613.913 1333.75 612.731C1347.15 607.649 1368.25 599.643 1375.81 600.444L1376.14 600.48C1385.35 601.452 1394.3 602.396 1398.14 600.726C1402.02 599.034 1405.13 598.472 1409.01 599.034C1412.89 599.596 1421.63 600.585 1425.51 601.147C1429.39 601.709 1438.91 602.271 1445.7 600.585C1452.5 598.894 1464.15 597.062 1480.66 591.286C1497.15 585.51 1503.95 581.991 1508.03 579.879C1512.11 577.766 1519.09 575.794 1522.39 575.513C1525.7 575.227 1534.82 573.54 1539.28 571.568C1543.75 569.596 1549.77 567.905 1552.1 565.506C1554.43 563.112 1560.64 555.087 1572.68 552.974C1584.72 550.857 1587.83 550.435 1595.97 547.76C1604.14 545.085 1616.95 541.422 1620.24 539.309C1623.54 537.196 1631.89 534.521 1639.27 535.786C1646.65 537.056 1668.78 543.113 1671.69 543.956C1671.98 544.041 1672.27 544.129 1672.57 544.218C1675.21 545.023 1678.1 545.901 1683.35 544.378C1684.67 543.993 1685.91 543.71 1686.98 543.465C1690.61 542.634 1692.36 542.234 1689.37 539.731C1685.48 536.494 1674.6 531.701 1674.6 529.87C1674.6 529.378 1674.47 528.887 1674.34 528.458C1674.01 527.289 1673.81 526.584 1676.94 527.616C1681.21 529.026 1723.34 542.687 1726.64 543.956C1729.94 545.226 1750.32 550.997 1758.48 554.52C1766.63 558.043 1789.41 563.679 1802.8 561.707C1812.64 560.258 1817.53 561.695 1821.04 562.729C1822.32 563.104 1823.41 563.425 1824.49 563.538C1828.57 563.96 1835.95 564.382 1838.86 564.944C1841.77 565.506 1878.91 568.206 1892.11 568.487C1905.31 568.772 1914.4 568.04 1925.85 562.55C1937.31 557.055 1958.04 541.987 1974.03 537.182C1990.03 532.378 2007.54 530.999 2017.06 535.786C2026.57 540.579 2064.46 551.569 2068.34 552.974C2068.6 553.067 2068.86 553.168 2069.14 553.274C2073.15 554.782 2080.29 557.47 2104.2 556.351C2129.8 555.154 2154.36 544.945 2160.76 544.378C2162.36 544.237 2163.95 544.035 2165.49 543.837C2170.14 543.243 2174.48 542.688 2178.12 543.956C2182.98 545.648 2192.74 548.889 2202.06 547.76C2206.89 547.178 2210.19 549.73 2213.17 552.033C2215.94 554.177 2218.44 556.104 2221.62 555.083C2228.22 552.971 2262.77 551.631 2268.79 551.209C2274.8 550.787 2288.78 551.986 2300.26 555.083C2307.75 557.104 2318.6 556.726 2327.51 556.416C2332.25 556.251 2336.45 556.105 2339.29 556.351C2342.39 556.62 2346.89 557.641 2351.44 558.672C2358.85 560.354 2366.38 562.062 2368.16 560.578C2370.59 558.558 2370.03 557.038 2368.86 553.905C2368.64 553.325 2368.41 552.69 2368.16 551.986C2367.14 549.025 2361.63 545.494 2358.6 542.538C2357 540.992 2354.83 538.728 2352.97 537.182C2347.54 532.676 2352.91 528.145 2358.54 525.466C2361.27 524.166 2365.64 525.796 2369.67 527.783C2371.37 527.787 2372.86 527.358 2373.73 525.964C2376.04 522.291 2380.18 516.285 2383.86 512.948C2385.83 511.164 2384.69 506.146 2383.56 501.147C2382.58 496.793 2381.59 492.454 2382.67 490.276C2384.97 485.607 2390.89 479.074 2394.12 475.737C2395.48 474.328 2399.81 472.802 2403.94 471.345C2409.61 469.347 2414.92 467.478 2411.69 466.215C2406.11 464.032 2401.66 457.347 2398.26 449.969C2394.85 442.591 2407.18 424.778 2414.32 418.435C2421.45 412.093 2438.99 408.716 2442.44 404.042C2443.85 402.135 2443.8 400.099 2443.74 397.958C2443.66 394.853 2443.58 391.53 2447.94 388.072C2455.31 382.23 2482.81 358.16 2487.64 354.819C2489.72 353.382 2489.59 351.152 2489.41 348.205C2489.18 344.308 2488.88 339.158 2493.51 332.928C2501.66 321.986 2516.2 319.963 2524.09 316.836C2531.97 313.704 2528.63 304.356 2536.26 298.467C2541.22 294.648 2556.19 297.835 2567.28 300.197C2573.29 301.477 2578.17 302.514 2579.69 302.062C2580.62 301.783 2581.72 301.364 2582.91 300.912C2587.2 299.277 2592.62 297.213 2595.41 299.809C2598.98 303.123 2604.33 303.521 2609.42 304.255C2610.13 304.357 2610.87 304.479 2611.61 304.603C2616.23 305.371 2621.37 306.225 2624.25 303.027C2627.59 299.311 2631.25 295.347 2640.51 287.902C2649.77 280.457 2666.26 277.314 2671.93 274.697C2675.08 273.244 2674.18 269.79 2673.25 266.232C2672.5 263.382 2671.74 260.465 2673.02 258.455C2675.92 253.931 2697.22 242.146 2699.39 240.676C2701.56 239.207 2704.21 230.712 2706.43 226.188C2708.66 221.668 2714.77 213.538 2729.69 201.915C2744.61 190.293 2765.41 164.867 2771.66 162.786C2777.9 160.705 2790.93 161.65 2797.42 160.145C2802 159.085 2804.09 159.812 2807.66 161.057C2809.15 161.574 2810.89 162.181 2813.17 162.786C2820.96 164.852 2832.99 162.959 2838.7 160.145C2844.41 157.332 2852.94 159.303 2859.05 150.839C2865.15 142.37 2864.74 144.96 2867.48 137.087C2870.21 129.213 2880.47 127.131 2883.78 124.738C2887.08 122.345 2891.97 118.267 2898.95 113.711C2905.93 109.156 2910.98 106.437 2920.65 108.171C2930.32 109.906 2954.16 105.414 2957.72 103.572C2961.28 101.731 2963.29 101.202 2963.55 96.9723C2963.64 95.5178 2962.99 93.5442 2962.31 91.4679C2961.01 87.4997 2959.59 83.1566 2962.92 81.3463C2968.01 78.5841 2972.29 79.2075 2975.6 74.0523C2978.91 68.9018 2976.99 65.7508 2981.96 62.7316C2986.93 59.7125 3008.9 51.8314 3018.7 53.9226C3028.49 56.0139 3049.46 55.3157 3052 49.2444C3054.54 43.1685 3057.1 33.6938 3064.47 28.7256C3071.85 23.7574 3076.32 20.1308 3075.33 15.4142C3074.34 10.6975 3075.87 7.84596 3079.18 3.67859C3082.49 -0.488784 3085.89 -0.156992 3087.18 0.188867C3088.47 0.530052 3088.55 2.69401 3085.09 5.19448C3082.43 7.12566 3082.35 9.80097 3082.24 13.2957C3082.2 14.3344 3082.17 15.4454 3082.06 16.6308C3081.61 21.8047 3075.01 27.6384 3072.95 29.6388C3070.87 31.6438 3071.56 32.1238 3066.27 36.7976C3060.98 41.4714 3061.32 46.5543 3055.53 55.3633C3050.65 62.7769 3024.88 61.207 3013.67 60.5236C3011.56 60.395 3009.96 60.2978 3009.12 60.2978C3003.79 60.2978 2989.86 66.4566 2986.08 67.2932C2980.04 68.6393 2981.97 72.8446 2979.41 77.7241C2976.85 82.5988 2972.43 81.7258 2966.84 85.4275C2964.04 87.2867 2965.66 90.0516 2967.37 92.9823C2969.07 95.8869 2970.86 98.9536 2968.55 101.463C2966.3 103.901 2966.31 104.864 2966.31 105.512C2966.31 106.205 2966.32 106.537 2963.55 107.929C2958.2 110.621 2949.59 112.862 2937.5 115.049C2932.37 115.976 2927.59 115.167 2923.1 114.407C2917.01 113.376 2911.45 112.436 2906.32 116.066C2897.41 122.369 2893.11 121.989 2888.44 127.748C2883.78 133.507 2873.61 133.736 2873.43 138.429C2873.24 143.121 2869.63 147.614 2865.37 153.115C2861.11 158.611 2855.41 159.146 2846.89 162.786C2838.38 166.426 2838.02 167.914 2835.06 167.914C2834.49 167.914 2833.62 167.932 2832.55 167.954C2828.05 168.047 2819.86 168.216 2814.33 167.457C2807.47 166.517 2795.87 166.035 2791.06 167.914C2788.82 168.786 2785.51 168.257 2782.36 167.751C2778.75 167.17 2775.33 166.622 2773.94 168.268C2771.34 171.353 2763.11 178.59 2757.73 181.849C2752.35 185.107 2741.06 199 2733.62 204.94C2726.17 210.88 2716.44 222.364 2712.92 226.117C2709.39 229.87 2707.78 237.73 2705.14 242.146C2702.5 246.568 2683.43 256.554 2681.37 261.873C2680.38 264.417 2680.88 266.322 2681.42 268.338C2682 270.537 2682.61 272.867 2681.37 276.303C2678.98 282.886 2662.45 288.27 2656.36 290.331C2650.44 292.333 2634.2 308.802 2630.15 312.041C2627.3 314.31 2621.26 313.473 2615.81 312.717C2613.47 312.394 2611.25 312.085 2609.42 312.041C2607.55 311.996 2604.43 311.699 2600.88 311.361C2592.91 310.603 2582.78 309.639 2579.69 310.861C2577.72 311.64 2574.61 311.323 2570.52 310.906C2565.33 310.376 2558.54 309.685 2550.47 310.861C2536.03 312.965 2537.29 328.549 2526.28 332.928C2521.25 334.932 2516.68 335.076 2512.92 335.195C2508.45 335.335 2505.12 335.44 2503.48 338.581C2501.83 341.737 2502.63 346.043 2503.35 349.884C2503.94 353.089 2504.48 355.967 2503.48 357.576C2501.28 361.112 2481.55 373.753 2477.02 377.665C2472.49 381.577 2467.39 386.832 2458.54 394.029C2453.26 398.325 2453.91 403.455 2454.46 407.859C2454.84 410.834 2455.17 413.478 2453.6 415.307C2451.37 417.916 2450.73 417.685 2449.42 417.211C2448.45 416.86 2447.11 416.375 2444.49 416.809C2442.45 417.144 2441.14 420.87 2438.17 421.866C2432.13 423.893 2423.89 423.769 2421.45 424.859C2417.8 426.49 2408.26 432.265 2405.74 443.996C2404.2 451.206 2410.44 455.662 2415.94 459.585C2419.39 462.045 2422.55 464.295 2423.3 466.883C2424.5 470.978 2416.06 474.066 2408.91 476.684C2404.33 478.359 2400.28 479.842 2399.62 481.272C2399.09 482.419 2398.88 483.835 2398.66 485.225C2398.2 488.278 2397.75 491.212 2394.09 490.932C2391.68 490.749 2392.44 491.381 2393.87 492.577C2395.61 494.038 2398.35 496.338 2397.58 499.023C2396.18 503.912 2398.57 512.976 2401.66 516.028C2404.75 519.08 2403.91 522.95 2398.86 526.609C2393.8 530.273 2390.7 534.513 2382.56 537.359C2377.21 539.235 2376.73 539.128 2375.44 538.834C2374.76 538.682 2373.87 538.48 2371.95 538.48ZM2377.04 531.632C2376.13 531.206 2374.99 530.594 2373.73 529.911L2373.31 529.687C2374.61 528.346 2376.22 526.741 2377.55 525.24C2380.16 522.272 2383.9 516.073 2385.58 515.129C2386.13 514.821 2386.46 514.542 2386.7 514.338C2387.2 513.917 2387.32 513.818 2388.2 514.454C2389.5 515.394 2388.95 518.609 2388.39 521.829L2388.39 521.866C2387.82 525.103 2382.22 529.014 2378.29 531.033C2377.87 531.252 2377.45 531.451 2377.04 531.632ZM2398.88 517.314C2399.59 520.235 2396.93 523.024 2394.27 521.63C2391.62 520.235 2391.79 517.729 2392.32 515.222C2392.85 512.716 2398.17 514.388 2398.88 517.314ZM2382.89 534.494C2383.84 532.882 2384.32 530.403 2383.76 529.897C2385.81 528.345 2388.19 526.865 2389.17 526.336C2390.62 525.547 2394.78 526.134 2393.87 528.231C2392.99 530.271 2385.94 533.244 2382.89 534.494ZM2371.08 532.315C2371.04 532.391 2371.02 532.457 2371.01 532.515C2370.92 532.958 2371.65 533.105 2372.87 532.925C2372.28 532.722 2371.68 532.518 2371.08 532.315ZM2055.23 555.508C2055.23 555.508 2052.32 553 2055.44 553C2058.55 553 2069.77 555.978 2069.98 558.325C2070.17 560.384 2069.07 560.162 2066.57 559.655C2066.21 559.583 2065.82 559.505 2065.41 559.426C2062.09 558.796 2055.44 555.663 2055.23 555.508ZM1139.87 565.379C1144.84 564.52 1156.67 565.163 1156.98 566.878C1157.29 568.598 1154.18 571.384 1152.94 570.956C1152.94 570.956 1134.89 566.235 1139.87 565.379ZM1854.83 574.548C1854.83 574.548 1848.9 569.966 1854.21 571.216C1859.5 572.465 1865.74 574.969 1863.55 575.177C1863.03 575.226 1862.48 575.369 1861.88 575.524C1859.98 576.016 1857.68 576.613 1854.83 574.548ZM1213.27 593.571C1213.27 593.571 1198.47 583.352 1208.47 586.659C1218.47 589.965 1228.87 595.677 1225.27 595.977C1221.67 596.277 1213.27 593.571 1213.27 593.571Z" id="path_1" />
    <rect width="7680" height="3240" id="artboard_1" />
    <rect width="3552" height="2504" id="slice_1" />
    <clipPath id="clip_1">
      <use xlink:href="#slice_1" clip-rule="evenodd" />
    </clipPath>
    <clipPath id="clip_2">
      <use xlink:href="#artboard_1" clip-rule="evenodd" />
    </clipPath>
  </defs>
  <g id="Slice" clip-path="url(#clip_1)">
    <use xlink:href="#slice_1" stroke="none" fill="none" />
    <g id="河南龙源" clip-path="url(#clip_2)" transform="translate(-3992 -455)">
      <g id="地图" transform="translate(3994 164)">
        <g id="黄河" transform="translate(77 501)">
          <path d="M2371.95 538.48C2366.34 538.48 2366.51 531.783 2363.56 530.439C2363.56 530.439 2362.04 530.546 2360.29 530.638C2359.91 531.219 2359.12 531.424 2358.42 531.602C2357.2 531.915 2356.3 532.147 2358.6 534.213C2359.79 535.285 2361.98 536.909 2364.47 538.752C2370.46 543.199 2378.17 548.917 2377.76 551.209C2377.17 554.451 2377.35 563.983 2372.11 567.361C2369.05 569.332 2364.05 567.898 2357.6 566.052C2352.99 564.729 2347.63 563.195 2341.73 562.55C2333.33 561.633 2324.18 561.754 2316.33 561.858C2310.95 561.93 2306.19 561.993 2302.71 561.707C2300.36 561.513 2297.61 560.905 2294.54 560.229C2286.51 558.455 2276.36 556.215 2265.81 559.788C2251.25 564.716 2219.55 562.409 2214.12 561.707C2208.69 560.999 2170.77 556.919 2164.94 557.06C2159.12 557.2 2110.94 566.213 2107.25 566.494C2106.83 566.527 2106.13 566.628 2105.17 566.766C2097.76 567.835 2075.39 571.06 2055.44 560.578C2032.92 548.744 2027.37 542.538 2001.77 542.538C1976.17 542.538 1984.74 546.777 1959.31 557.06C1933.88 567.342 1937.15 572.522 1912.49 575.619C1902.23 576.909 1894.1 578.667 1887.39 580.119C1877.97 582.156 1871.34 583.588 1865.56 582.273C1855.66 580.019 1822.25 575.695 1816.81 574.847C1811.38 574.004 1796.5 573.578 1792.22 574.847C1789.04 575.79 1779.66 574.051 1772.35 572.697C1769.86 572.235 1767.61 571.818 1765.93 571.568C1759.33 570.58 1730.64 563.792 1721.9 557.876C1713.17 551.959 1702.18 551.424 1689.95 551.986C1677.71 552.548 1659.46 550.716 1650.34 549.592C1641.21 548.463 1620.44 546.491 1611.51 553.256C1602.58 560.016 1592.48 567.905 1586.27 571.142C1580.06 574.383 1575.2 576.496 1569.38 576.777C1563.55 577.058 1555.98 578.328 1539.48 586.779C1522.98 595.23 1500.26 604.951 1493.27 606.783C1492.44 607.001 1491.47 607.279 1490.38 607.595C1482.28 609.928 1467.11 614.302 1445.9 611.571C1441.7 611.031 1437.96 610.534 1434.59 610.087C1418.62 607.97 1411.15 606.979 1404.74 607.907C1396.97 609.036 1354.26 615.515 1348.63 618.049C1343 620.584 1330.57 626.22 1327.27 626.641C1323.97 627.068 1315.24 627.77 1302.03 624.247C1288.84 620.729 1269.61 617.347 1262.82 616.785C1256.02 616.218 1230.4 610.165 1226.12 606.075C1221.85 601.99 1214.09 600.585 1211.95 599.596C1209.81 598.613 1197.58 592.977 1190.79 588.33C1183.99 583.678 1182.83 579.879 1164.58 577.34C1146.33 574.805 1132.35 572.552 1128.66 570.439C1127 569.491 1125.9 568.599 1125.18 567.904C1117.8 568.39 1108.94 567.007 1099.35 564.205L1098.79 564.039L1097.66 563.699C1097.48 563.641 1097.29 563.583 1097.1 563.524L1095.98 563.167L1094.86 562.801C1094.68 562.74 1094.49 562.677 1094.31 562.615L1093.2 562.237L1092.11 561.853L1091.03 561.463L1089.96 561.069L1088.91 560.672L1087.89 560.273L1086.89 559.873C1086.72 559.806 1086.56 559.74 1086.39 559.673L1085.43 559.274L1084.5 558.878L1083.59 558.484L1082.73 558.096C1082.58 558.031 1082.44 557.967 1082.31 557.903L1081.49 557.523L1080.72 557.15L1080 556.786C1079.88 556.726 1079.76 556.666 1079.65 556.607L1078.99 556.258L1078.38 555.919L1078.09 555.755C1076.32 554.723 1074.94 554.189 1073.72 554.026C1073.05 558.598 1069.99 566.512 1064.41 566.332C1061.8 566.245 1059.11 565.732 1056.52 565.24C1051.9 564.36 1047.64 563.548 1044.88 565.38C1041.6 567.557 1035.81 567.104 1030.16 566.662C1028.41 566.524 1026.66 566.387 1025.02 566.332C1023.97 566.295 1022.77 566.189 1021.47 566.075C1014.14 565.428 1003.81 564.517 1001.84 574.425C999.524 586.09 995.55 605.847 982.636 611.798C969.729 617.748 961.453 617.748 966.412 609.418C971.378 601.085 985.947 583.706 987.273 574.901C987.318 574.608 987.364 574.304 987.412 573.99C988.802 564.868 991.448 547.495 978.005 553.475C967.572 558.118 963.739 557.596 960.042 556.903C957.176 556.367 952.732 554.062 952.03 553.993C942.781 553.069 938.312 548.07 950.523 548.001C952.544 547.99 954.702 548.072 956.849 548.153C965.254 548.472 973.495 548.784 972.705 543.478C971.713 536.812 970.721 532.53 950.523 527.767C930.325 523.004 923.344 521.882 923.344 521.882C923.344 521.882 910.422 514.849 918.86 513.301C918.426 512.776 917.991 512.177 917.533 511.493L916.208 509.442L915.878 508.943L915.571 508.493C915.521 508.421 915.471 508.349 915.421 508.279C913.11 505.013 910.516 503.053 906.141 501.952L905.712 501.848C902.725 501.152 900.579 500.355 897.585 498.912L896.609 498.435L894.653 497.454C890.487 495.376 887.435 494.247 882.824 493.376L881.848 493.198L880.478 492.961L879.528 492.806L878.323 492.623L877.436 492.5L876.234 492.351L874.962 492.212L873.566 492.075L871.568 491.899L867.778 491.587L866.568 491.475L865.829 491.398C865.71 491.385 865.593 491.371 865.478 491.358L864.81 491.274C864.702 491.26 864.596 491.245 864.491 491.231L863.881 491.138C863.584 491.09 863.3 491.04 863.024 490.986L862.484 490.872C862.307 490.833 862.133 490.792 861.962 490.749L861.452 490.614C860.948 490.473 860.454 490.312 859.948 490.127C859.781 490.066 859.616 490.003 859.451 489.937C859.193 489.835 858.843 489.742 858.409 489.657L858.018 489.587C857.949 489.576 857.879 489.565 857.807 489.554L857.357 489.49C857.279 489.48 857.199 489.47 857.118 489.46L856.346 489.375L855.496 489.3L854.573 489.233L853.581 489.175L852.523 489.125L851.406 489.084L850.63 489.061L849.01 489.025L847.739 489.006L845.98 488.993L843.693 488.995L841.326 489.015L838.41 489.061L836.36 489.107L835.317 489.135C834.273 489.164 833.227 489.196 832.186 489.233L830.264 489.304L828.513 489.377L826.788 489.456L825.096 489.541L823.445 489.631L821.843 489.726L820.296 489.826L818.814 489.931C818.332 489.966 817.861 490.002 817.404 490.039C817.104 490.063 816.8 490.095 816.489 490.136L816.177 490.184L815.777 490.255L815.041 490.401L813.867 490.65L811.887 491.09L807.473 492.1L806.796 492.238L805.623 492.463C801.876 493.157 797.808 493.658 792.895 493.968L791.314 494.06C787.218 494.278 784.814 495.046 783.601 496.232C782.832 496.984 782.514 497.841 782.315 499.543L782.159 501.103C781.786 504.488 781.005 506.127 778.381 507.47C778.105 507.612 777.797 507.76 777.461 507.915L776.751 508.233L775.968 508.567C775.695 508.681 775.411 508.797 775.115 508.916L774.195 509.278L773.213 509.654L772.17 510.041L771.071 510.439C770.884 510.506 770.694 510.574 770.502 510.642L769.325 511.054L768.099 511.474L766.83 511.902L765.519 512.336L764.17 512.775L762.083 513.441L760.654 513.889L758.464 514.563L756.976 515.013L754.713 515.685L753.188 516.131L751.653 516.573L749.342 517.227L747.799 517.656L746.259 518.077L744.725 518.491L743.2 518.895L741.688 519.29L740.192 519.673L738.716 520.044L737.262 520.402L735.835 520.746L734.437 521.074L733.072 521.387L731.743 521.682L730.454 521.958L729.208 522.216L728.009 522.453L726.859 522.669C726.485 522.737 726.119 522.801 725.763 522.862L724.723 523.032C722.028 523.453 719.973 523.614 718.844 523.428C715.688 522.907 714.006 523.293 713.718 523.99C713.373 524.821 714.232 526.781 716.521 529.332C717.7 530.645 719.909 530.854 723.463 530.127L723.98 530.017L724.52 529.894L725.749 529.593L728.19 528.975L729.114 528.752L729.702 528.62L730.212 528.515L730.515 528.46L730.793 528.416L731.049 528.383L731.286 528.36L731.51 528.346L731.722 528.342L731.927 528.346L732.128 528.358L732.33 528.378L732.534 528.405L732.746 528.438C735.412 528.89 735.875 531.197 734.501 534.574C733.317 537.485 730.465 540.008 725.841 542.497L725.075 542.901C724.554 543.17 724.013 543.438 723.451 543.707L722.591 544.111C722.3 544.246 722.003 544.38 721.701 544.515L720.778 544.921C720.622 544.989 720.464 545.056 720.305 545.124L719.336 545.532L718.334 545.942L717.3 546.354Q717.038 546.457 716.772 546.56L715.69 546.976L714.576 547.395L713.652 547.736L710.747 548.771L701.299 552.103L700.244 552.5L699.592 552.754L698.981 552.999L698.143 553.349L697.398 553.677L696.953 553.885L696.549 554.083L696.187 554.272C695.504 554.639 695.07 554.948 694.884 555.196L694.775 555.351L694.428 555.879L693.346 557.587L691.29 560.853L690.478 562.121L689.917 562.973L689.679 563.323L689.573 563.477C685.386 569.44 680.96 573.025 675.361 573.732C673.714 573.939 671.913 574.824 669.836 576.402L669.327 576.799L668.854 577.179L668.544 577.437L668.162 577.761L667.575 578.279L666.95 578.852L666.266 579.499L665.501 580.239L664.634 581.092L661.826 583.894L660.848 584.859L660.24 585.45L659.385 586.265L658.85 586.764L658.339 587.232L657.847 587.669L657.373 588.08C657.295 588.146 657.218 588.212 657.141 588.276L656.687 588.651L656.241 589.005L655.802 589.342L655.365 589.662C655.219 589.767 655.073 589.87 654.927 589.97L654.486 590.268L654.037 590.558C650.584 592.745 647.319 593.447 644.086 592.35L643.774 592.238C635.275 589.045 624.992 592.216 615.394 598.972L614.951 599.286C607.122 604.888 592.073 605.882 586.794 600.686C583.448 597.388 573.694 599.002 568.491 602.559L568.234 602.739C566.933 603.668 565.49 604.574 563.968 605.411L563.201 605.823C557.27 608.934 550.323 610.901 545.841 609.083L539.56 606.488L538.443 606.039L537.385 605.622C537.212 605.554 537.042 605.489 536.873 605.424L535.88 605.048L535.396 604.868C530.176 602.951 526.296 602.061 523.778 602.362C521.003 602.694 518.614 603.865 515.512 606.2L514.631 606.884L510.617 610.084L510.028 610.541C509.941 610.607 509.856 610.673 509.77 610.737C507.903 612.159 506.157 612.873 503.51 613.215L502.928 613.283C502.829 613.293 502.728 613.303 502.626 613.313L501.999 613.365L501.339 613.408L500.643 613.441L499.91 613.467L499.137 613.485L497.898 613.501L495.318 613.512L494.561 613.521L493.856 613.535L493.197 613.554L492.278 613.593L491.704 613.627L491.151 613.668C491.061 613.675 490.971 613.683 490.881 613.691L490.596 613.719C492.081 615.328 493.089 617.156 492.994 618.549C492.809 621.179 489.839 620.624 486.126 619.929C484.78 619.678 483.337 619.408 481.893 619.265C479.091 618.989 477.437 620.161 475.574 621.481C473.833 622.715 471.908 624.08 468.689 624.513C464.984 625.011 464.515 624.349 463.706 623.206C463.061 622.296 462.201 621.082 459.319 619.906C452.825 617.249 436.389 614.71 429.879 621.026C423.369 627.342 421.037 631.081 411.086 635.651C403.183 639.277 396.504 639.617 390.646 639.915C389.127 639.992 387.664 640.066 386.25 640.194C384.602 640.343 383.089 640.4 381.639 640.455C377.037 640.627 373.063 640.777 367.403 643.775C364.614 645.25 362.109 645.242 359.472 645.233C355.065 645.219 350.287 645.204 343.191 652.103C331.848 663.131 326.121 663.131 319.203 657.856C316.885 656.089 315.254 654.498 314.011 653.286C311.545 650.88 310.604 649.963 308.847 652.103C306.793 654.605 308.852 657.974 310.745 661.071C311.287 661.958 311.816 662.822 312.23 663.637C314.084 667.295 310.391 672.947 302.692 676.428C293.132 679.26 287.435 684.049 282.984 687.792C279.266 690.918 276.417 693.313 272.912 693.226C268.923 693.126 262.041 694.448 255.002 695.8C248.45 697.058 241.763 698.342 237.153 698.529C232.122 698.731 227.541 695.909 223.128 693.191C219.156 690.745 215.321 688.383 211.417 688.383C202.459 688.383 196.546 697.319 192.676 699.807C182.343 706.455 177.167 708.054 168.38 709.832C163.879 710.742 156.938 710.363 149.541 709.959C142.481 709.573 135.006 709.165 128.838 709.832C123.892 710.365 119.149 711.943 114.52 713.483C107.326 715.876 100.405 718.179 93.4223 716.326C81.9464 713.28 76.2279 707.592 63.9895 704.266C51.7512 700.944 48.6623 702.711 42.877 706.746C37.0917 710.781 34.9446 713.347 25.2065 714.344C15.4685 715.342 0 709.832 0 709.832L0 706.36C28.167 716.468 35.408 708.563 40.2877 703.235C41.662 701.735 42.8491 700.439 44.2636 699.807C50.7002 696.934 57.0439 696.939 62.2649 698.529C74.4386 702.239 85.5852 711.614 99.5876 712.194C104.17 712.384 110.058 710.475 115.978 708.556C122.469 706.452 128.997 704.336 133.881 704.962C143.218 706.151 152.164 706.627 171.83 704.266C191.496 701.904 198.01 684.839 210.035 682.806C216.433 681.724 220.05 684.522 223.741 687.377C226.989 689.888 230.295 692.445 235.602 692.445C246.948 692.445 264.264 687.409 270.634 687.409C277.004 687.409 280.526 680.092 293.904 674.582C307.283 669.071 305.392 669.216 307.735 666.411C308.98 664.92 307.629 662.515 306.199 659.971C304.938 657.727 303.616 655.374 303.961 653.445C304.704 649.333 307.47 647.68 310.711 647.68C313.951 647.68 320.118 656.14 327.129 657.856C331.759 658.99 334.817 654.688 337.353 651.118C338.658 649.283 339.824 647.641 340.996 647.032C344.453 645.241 348.524 643.248 355.186 642.172C361.848 641.101 365.5 638.709 372.408 635.664C377.226 633.541 382.379 633.97 387.065 634.36C389.09 634.529 391.028 634.69 392.814 634.635C398.733 634.457 403.579 632.698 407.332 629.926C411.086 627.154 418.161 624.513 421.251 619.906C424.341 615.298 426.84 612.839 433.25 611.052C439.415 609.33 442.544 610.595 445.891 611.949C448.828 613.136 451.932 614.391 457.4 613.757C462.223 613.201 463.237 613.674 465.576 614.764C466.227 615.067 466.98 615.418 467.946 615.808C471.277 617.149 475.728 614.388 479.304 612.169C480.492 611.431 481.584 610.754 482.506 610.307C484.043 609.564 486.156 610.244 488.083 611.55L488 611.051L488.586 610.958C488.682 610.944 488.778 610.93 488.873 610.916L489.441 610.839C489.535 610.828 489.63 610.816 489.724 610.805L490.29 610.743L490.863 610.69L491.451 610.646C491.55 610.639 491.651 610.633 491.752 610.627L492.374 610.594L493.028 610.567L493.72 610.547L494.457 610.532L495.247 610.522L498.243 610.508L499.37 610.49L500.068 610.47C500.181 610.466 500.292 610.462 500.401 610.458L501.04 610.427L501.641 610.39L502.208 610.343C502.392 610.327 502.57 610.308 502.743 610.288L503.247 610.224C505.209 609.945 506.504 609.423 507.786 608.482L508.194 608.173L508.934 607.596L512.792 604.52L513.7 603.815C517.188 601.19 520.024 599.8 523.42 599.393C526.362 599.042 530.263 599.872 535.394 601.687L536.436 602.063L536.934 602.248L537.951 602.633L539.009 603.045L540.117 603.486L543.135 604.726L546.974 606.315C551.401 608.11 560.483 604.493 566.179 600.524L566.48 600.311C572.565 595.947 583.841 593.96 588.694 598.36L588.907 598.561C592.991 602.581 606.442 601.693 613.197 596.859C623.505 589.469 634.703 585.86 644.413 589.288L644.835 589.441C647.292 590.365 649.563 589.978 652.566 587.962L653.046 587.63C653.209 587.515 653.373 587.395 653.54 587.271L654.047 586.884Q654.175 586.783 654.306 586.68L654.835 586.251L655.38 585.793L655.941 585.307L656.52 584.793L657.117 584.249L657.734 583.675L658.369 583.072L659.026 582.439L659.704 581.775L660.404 581.081L661.684 579.8L663.132 578.364L663.919 577.597L664.625 576.923L665.061 576.516L665.676 575.957L666.069 575.611L666.454 575.28L666.839 574.958L667.426 574.484C667.492 574.431 667.559 574.378 667.627 574.325C670.117 572.369 672.382 571.182 674.644 570.815L674.983 570.766C679.438 570.203 683.172 567.255 686.829 562.16L687.217 561.612L687.591 561.054L688.2 560.117L691.532 554.842L692.159 553.871L692.34 553.601L692.473 553.413C693.042 552.652 694.052 551.952 695.661 551.179L696.189 550.933L696.758 550.681C696.954 550.596 697.158 550.509 697.369 550.422L698.022 550.155L698.72 549.88L699.464 549.595L700.737 549.125L712.219 545.073L712.964 544.803L714.062 544.393L715.128 543.988C715.303 543.92 715.476 543.853 715.648 543.786L716.666 543.384L717.65 542.985L718.603 542.589L719.523 542.195C719.674 542.13 719.823 542.064 719.971 541.999L720.843 541.608C720.985 541.543 721.126 541.479 721.266 541.414L722.089 541.026L722.88 540.641C723.267 540.448 723.642 540.256 724.005 540.065L724.714 539.683C728.526 537.586 730.864 535.547 731.717 533.452C732.11 532.487 732.271 531.809 732.266 531.44L732.263 531.387L732.106 531.366L731.965 531.354C731.941 531.352 731.917 531.351 731.892 531.35L731.736 531.349C731.709 531.349 731.682 531.35 731.654 531.351L731.476 531.363L731.279 531.384L730.94 531.434L730.68 531.48L730.388 531.538L729.885 531.648L729.071 531.84L727.489 532.236L726.137 532.58L725.495 532.737L724.905 532.875L724.344 532.998L724.068 533.055C719.554 533.979 716.396 533.681 714.281 531.323C708.165 524.508 710.042 519.301 718.497 520.357L719.051 520.434C719.145 520.448 719.24 520.463 719.335 520.479C720.273 520.633 722.031 520.489 724.372 520.118L725.339 519.957L726.365 519.773C726.541 519.74 726.719 519.707 726.899 519.672L728.006 519.456L729.164 519.218C729.361 519.177 729.56 519.134 729.761 519.092L730.988 518.825L732.257 518.539L733.564 518.237L734.906 517.919L736.281 517.585L737.683 517.237L739.832 516.691L742.026 516.118L743.508 515.724L745.001 515.321L746.502 514.909L748.762 514.279L751.02 513.636L752.519 513.202L754.751 512.545L756.951 511.886L758.394 511.446L760.516 510.788L761.897 510.353L763.91 509.706L765.207 509.281L766.465 508.863L767.68 508.451L768.849 508.048L769.969 507.653L771.036 507.269C771.209 507.206 771.38 507.143 771.548 507.081L772.529 506.714L773.449 506.359L774.304 506.018C775.399 505.573 776.312 505.167 777.008 504.811C778.388 504.105 778.848 503.327 779.118 501.252L779.177 500.749C779.186 500.661 779.195 500.572 779.205 500.48L779.265 499.83L779.321 499.309L779.39 498.806L779.471 498.321C780.326 493.716 783.125 491.57 790.755 491.097L791.933 491.031L793.447 490.936C798.401 490.597 802.45 490.055 806.205 489.306L806.946 489.154L811.414 488.131L813.296 487.714L814.436 487.474L815.177 487.327L815.783 487.219L816.097 487.172C816.458 487.124 816.812 487.087 817.163 487.059L818.652 486.944L820.206 486.834L821.819 486.729L823.483 486.629L825.191 486.535L826.936 486.447L829.605 486.327L831.41 486.256L832.473 486.218C836.268 486.088 840.107 486.009 843.693 486L845.144 486L846.534 486.008L848.329 486.031L849.628 486.057L850.469 486.08L851.69 486.121L852.857 486.171L854.325 486.251L855.017 486.298L855.68 486.349L856.618 486.433L857.202 486.495L857.754 486.562L858.27 486.633L858.75 486.709C858.904 486.735 859.052 486.762 859.193 486.789L859.597 486.875C859.917 486.948 860.196 487.026 860.43 487.11L860.774 487.242L860.984 487.321C861.129 487.374 861.273 487.424 861.418 487.473L861.852 487.613C861.998 487.658 862.144 487.701 862.292 487.741L862.741 487.859C863.045 487.934 863.359 488.003 863.69 488.067L864.2 488.159L864.74 488.244L865.316 488.324L865.932 488.4C866.038 488.413 866.147 488.425 866.257 488.437L866.943 488.508L867.683 488.577L872.705 488.996L874.255 489.137L875.643 489.276L876.609 489.384L877.535 489.498L878.445 489.62L879.361 489.754L879.986 489.851L880.962 490.01L882.746 490.321C887.807 491.226 891.139 492.397 895.453 494.511L897.449 495.509C900.917 497.251 903.018 498.116 905.969 498.835L906.396 498.937C911.8 500.196 915.091 502.62 917.877 506.557L918.205 507.03L918.545 507.536L919.838 509.539C921.03 511.364 921.923 512.391 923.012 513.001C938.542 512.917 983.782 518.337 994.886 524.912C998.765 527.207 1002.41 530.407 1005.95 533.518C1012.69 539.438 1019.07 545.038 1026.01 543.478C1029.39 542.718 1031.82 541.644 1033.8 540.773C1038.02 538.911 1040.14 537.974 1044.88 543.003C1051.83 550.38 1055.47 551.808 1055.47 546.574C1055.47 546.179 1055.47 545.732 1055.46 545.242C1055.39 539.227 1055.23 526.775 1064.41 526.34C1074.34 525.859 1076 529.195 1076 532.29C1076 535.385 1074.02 540.143 1072.69 541.811C1071.38 543.459 1072.66 549.062 1073.65 551.029C1075.33 551.167 1077.12 551.786 1079.24 552.978L1079.62 553.194C1079.79 553.297 1079.98 553.402 1080.17 553.509L1080.78 553.836L1081.43 554.174L1082.13 554.523L1082.87 554.88L1083.65 555.245C1083.78 555.306 1083.92 555.368 1084.05 555.43L1084.89 555.804L1085.76 556.184L1086.67 556.567L1087.6 556.952L1088.56 557.339C1088.72 557.403 1088.89 557.468 1089.05 557.532L1090.05 557.919L1091.06 558.305C1091.23 558.369 1091.41 558.432 1091.58 558.496L1092.62 558.877C1092.8 558.94 1092.97 559.003 1093.15 559.066L1094.21 559.44C1094.39 559.502 1094.57 559.563 1094.75 559.624L1095.83 559.989L1096.92 560.345C1097.28 560.462 1097.65 560.578 1098.01 560.692L1099.11 561.029C1099.47 561.14 1099.84 561.249 1100.2 561.355C1110.87 564.473 1120.56 565.763 1127.99 564.612L1128.49 564.532L1128.54 564.846C1132.7 563.418 1138.81 561.542 1142.83 561.285C1143.32 561.254 1143.82 561.22 1144.32 561.186C1150.6 560.757 1157.81 560.265 1163.03 563.398C1168.66 566.776 1181.08 574.805 1188.07 577.48C1195.06 580.16 1200.3 582.132 1203.99 582.273C1207.68 582.413 1213.7 583.537 1218.55 586.498C1223.4 589.454 1238.55 598.051 1242.82 599.596C1247.09 601.147 1261.07 605.373 1266.9 605.092C1272.72 604.811 1285.34 604.384 1291.36 606.783C1297.38 609.177 1303.2 611.571 1305.33 612.7C1305.55 612.811 1305.81 612.967 1306.13 613.154C1309.04 614.85 1316.3 619.082 1325.92 615.656C1327.93 614.938 1330.63 613.913 1333.75 612.731C1347.15 607.649 1368.25 599.643 1375.81 600.444L1376.14 600.48C1385.35 601.452 1394.3 602.396 1398.14 600.726C1402.02 599.034 1405.13 598.472 1409.01 599.034C1412.89 599.596 1421.63 600.585 1425.51 601.147C1429.39 601.709 1438.91 602.271 1445.7 600.585C1452.5 598.894 1464.15 597.062 1480.66 591.286C1497.15 585.51 1503.95 581.991 1508.03 579.879C1512.11 577.766 1519.09 575.794 1522.39 575.513C1525.7 575.227 1534.82 573.54 1539.28 571.568C1543.75 569.596 1549.77 567.905 1552.1 565.506C1554.43 563.112 1560.64 555.087 1572.68 552.974C1584.72 550.857 1587.83 550.435 1595.97 547.76C1604.14 545.085 1616.95 541.422 1620.24 539.309C1623.54 537.196 1631.89 534.521 1639.27 535.786C1646.65 537.056 1668.78 543.113 1671.69 543.956C1671.98 544.041 1672.27 544.129 1672.57 544.218C1675.21 545.023 1678.1 545.901 1683.35 544.378C1684.67 543.993 1685.91 543.71 1686.98 543.465C1690.61 542.634 1692.36 542.234 1689.37 539.731C1685.48 536.494 1674.6 531.701 1674.6 529.87C1674.6 529.378 1674.47 528.887 1674.34 528.458C1674.01 527.289 1673.81 526.584 1676.94 527.616C1681.21 529.026 1723.34 542.687 1726.64 543.956C1729.94 545.226 1750.32 550.997 1758.48 554.52C1766.63 558.043 1789.41 563.679 1802.8 561.707C1812.64 560.258 1817.53 561.695 1821.04 562.729C1822.32 563.104 1823.41 563.425 1824.49 563.538C1828.57 563.96 1835.95 564.382 1838.86 564.944C1841.77 565.506 1878.91 568.206 1892.11 568.487C1905.31 568.772 1914.4 568.04 1925.85 562.55C1937.31 557.055 1958.04 541.987 1974.03 537.182C1990.03 532.378 2007.54 530.999 2017.06 535.786C2026.57 540.579 2064.46 551.569 2068.34 552.974C2068.6 553.067 2068.86 553.168 2069.14 553.274C2073.15 554.782 2080.29 557.47 2104.2 556.351C2129.8 555.154 2154.36 544.945 2160.76 544.378C2162.36 544.237 2163.95 544.035 2165.49 543.837C2170.14 543.243 2174.48 542.688 2178.12 543.956C2182.98 545.648 2192.74 548.889 2202.06 547.76C2206.89 547.178 2210.19 549.73 2213.17 552.033C2215.94 554.177 2218.44 556.104 2221.62 555.083C2228.22 552.971 2262.77 551.631 2268.79 551.209C2274.8 550.787 2288.78 551.986 2300.26 555.083C2307.75 557.104 2318.6 556.726 2327.51 556.416C2332.25 556.251 2336.45 556.105 2339.29 556.351C2342.39 556.62 2346.89 557.641 2351.44 558.672C2358.85 560.354 2366.38 562.062 2368.16 560.578C2370.59 558.558 2370.03 557.038 2368.86 553.905C2368.64 553.325 2368.41 552.69 2368.16 551.986C2367.14 549.025 2361.63 545.494 2358.6 542.538C2357 540.992 2354.83 538.728 2352.97 537.182C2347.54 532.676 2352.91 528.145 2358.54 525.466C2361.27 524.166 2365.64 525.796 2369.67 527.783C2371.37 527.787 2372.86 527.358 2373.73 525.964C2376.04 522.291 2380.18 516.285 2383.86 512.948C2385.83 511.164 2384.69 506.146 2383.56 501.147C2382.58 496.793 2381.59 492.454 2382.67 490.276C2384.97 485.607 2390.89 479.074 2394.12 475.737C2395.48 474.328 2399.81 472.802 2403.94 471.345C2409.61 469.347 2414.92 467.478 2411.69 466.215C2406.11 464.032 2401.66 457.347 2398.26 449.969C2394.85 442.591 2407.18 424.778 2414.32 418.435C2421.45 412.093 2438.99 408.716 2442.44 404.042C2443.85 402.135 2443.8 400.099 2443.74 397.958C2443.66 394.853 2443.58 391.53 2447.94 388.072C2455.31 382.23 2482.81 358.16 2487.64 354.819C2489.72 353.382 2489.59 351.152 2489.41 348.205C2489.18 344.308 2488.88 339.158 2493.51 332.928C2501.66 321.986 2516.2 319.963 2524.09 316.836C2531.97 313.704 2528.63 304.356 2536.26 298.467C2541.22 294.648 2556.19 297.835 2567.28 300.197C2573.29 301.477 2578.17 302.514 2579.69 302.062C2580.62 301.783 2581.72 301.364 2582.91 300.912C2587.2 299.277 2592.62 297.213 2595.41 299.809C2598.98 303.123 2604.33 303.521 2609.42 304.255C2610.13 304.357 2610.87 304.479 2611.61 304.603C2616.23 305.371 2621.37 306.225 2624.25 303.027C2627.59 299.311 2631.25 295.347 2640.51 287.902C2649.77 280.457 2666.26 277.314 2671.93 274.697C2675.08 273.244 2674.18 269.79 2673.25 266.232C2672.5 263.382 2671.74 260.465 2673.02 258.455C2675.92 253.931 2697.22 242.146 2699.39 240.676C2701.56 239.207 2704.21 230.712 2706.43 226.188C2708.66 221.668 2714.77 213.538 2729.69 201.915C2744.61 190.293 2765.41 164.867 2771.66 162.786C2777.9 160.705 2790.93 161.65 2797.42 160.145C2802 159.085 2804.09 159.812 2807.66 161.057C2809.15 161.574 2810.89 162.181 2813.17 162.786C2820.96 164.852 2832.99 162.959 2838.7 160.145C2844.41 157.332 2852.94 159.303 2859.05 150.839C2865.15 142.37 2864.74 144.96 2867.48 137.087C2870.21 129.213 2880.47 127.131 2883.78 124.738C2887.08 122.345 2891.97 118.267 2898.95 113.711C2905.93 109.156 2910.98 106.437 2920.65 108.171C2930.32 109.906 2954.16 105.414 2957.72 103.572C2961.28 101.731 2963.29 101.202 2963.55 96.9723C2963.64 95.5178 2962.99 93.5442 2962.31 91.4679C2961.01 87.4997 2959.59 83.1566 2962.92 81.3463C2968.01 78.5841 2972.29 79.2075 2975.6 74.0523C2978.91 68.9018 2976.99 65.7508 2981.96 62.7316C2986.93 59.7125 3008.9 51.8314 3018.7 53.9226C3028.49 56.0139 3049.46 55.3157 3052 49.2444C3054.54 43.1685 3057.1 33.6938 3064.47 28.7256C3071.85 23.7574 3076.32 20.1308 3075.33 15.4142C3074.34 10.6975 3075.87 7.84596 3079.18 3.67859C3082.49 -0.488784 3085.89 -0.156992 3087.18 0.188867C3088.47 0.530052 3088.55 2.69401 3085.09 5.19448C3082.43 7.12566 3082.35 9.80097 3082.24 13.2957C3082.2 14.3344 3082.17 15.4454 3082.06 16.6308C3081.61 21.8047 3075.01 27.6384 3072.95 29.6388C3070.87 31.6438 3071.56 32.1238 3066.27 36.7976C3060.98 41.4714 3061.32 46.5543 3055.53 55.3633C3050.65 62.7769 3024.88 61.207 3013.67 60.5236C3011.56 60.395 3009.96 60.2978 3009.12 60.2978C3003.79 60.2978 2989.86 66.4566 2986.08 67.2932C2980.04 68.6393 2981.97 72.8446 2979.41 77.7241C2976.85 82.5988 2972.43 81.7258 2966.84 85.4275C2964.04 87.2867 2965.66 90.0516 2967.37 92.9823C2969.07 95.8869 2970.86 98.9536 2968.55 101.463C2966.3 103.901 2966.31 104.864 2966.31 105.512C2966.31 106.205 2966.32 106.537 2963.55 107.929C2958.2 110.621 2949.59 112.862 2937.5 115.049C2932.37 115.976 2927.59 115.167 2923.1 114.407C2917.01 113.376 2911.45 112.436 2906.32 116.066C2897.41 122.369 2893.11 121.989 2888.44 127.748C2883.78 133.507 2873.61 133.736 2873.43 138.429C2873.24 143.121 2869.63 147.614 2865.37 153.115C2861.11 158.611 2855.41 159.146 2846.89 162.786C2838.38 166.426 2838.02 167.914 2835.06 167.914C2834.49 167.914 2833.62 167.932 2832.55 167.954C2828.05 168.047 2819.86 168.216 2814.33 167.457C2807.47 166.517 2795.87 166.035 2791.06 167.914C2788.82 168.786 2785.51 168.257 2782.36 167.751C2778.75 167.17 2775.33 166.622 2773.94 168.268C2771.34 171.353 2763.11 178.59 2757.73 181.849C2752.35 185.107 2741.06 199 2733.62 204.94C2726.17 210.88 2716.44 222.364 2712.92 226.117C2709.39 229.87 2707.78 237.73 2705.14 242.146C2702.5 246.568 2683.43 256.554 2681.37 261.873C2680.38 264.417 2680.88 266.322 2681.42 268.338C2682 270.537 2682.61 272.867 2681.37 276.303C2678.98 282.886 2662.45 288.27 2656.36 290.331C2650.44 292.333 2634.2 308.802 2630.15 312.041C2627.3 314.31 2621.26 313.473 2615.81 312.717C2613.47 312.394 2611.25 312.085 2609.42 312.041C2607.55 311.996 2604.43 311.699 2600.88 311.361C2592.91 310.603 2582.78 309.639 2579.69 310.861C2577.72 311.64 2574.61 311.323 2570.52 310.906C2565.33 310.376 2558.54 309.685 2550.47 310.861C2536.03 312.965 2537.29 328.549 2526.28 332.928C2521.25 334.932 2516.68 335.076 2512.92 335.195C2508.45 335.335 2505.12 335.44 2503.48 338.581C2501.83 341.737 2502.63 346.043 2503.35 349.884C2503.94 353.089 2504.48 355.967 2503.48 357.576C2501.28 361.112 2481.55 373.753 2477.02 377.665C2472.49 381.577 2467.39 386.832 2458.54 394.029C2453.26 398.325 2453.91 403.455 2454.46 407.859C2454.84 410.834 2455.17 413.478 2453.6 415.307C2451.37 417.916 2450.73 417.685 2449.42 417.211C2448.45 416.86 2447.11 416.375 2444.49 416.809C2442.45 417.144 2441.14 420.87 2438.17 421.866C2432.13 423.893 2423.89 423.769 2421.45 424.859C2417.8 426.49 2408.26 432.265 2405.74 443.996C2404.2 451.206 2410.44 455.662 2415.94 459.585C2419.39 462.045 2422.55 464.295 2423.3 466.883C2424.5 470.978 2416.06 474.066 2408.91 476.684C2404.33 478.359 2400.28 479.842 2399.62 481.272C2399.09 482.419 2398.88 483.835 2398.66 485.225C2398.2 488.278 2397.75 491.212 2394.09 490.932C2391.68 490.749 2392.44 491.381 2393.87 492.577C2395.61 494.038 2398.35 496.338 2397.58 499.023C2396.18 503.912 2398.57 512.976 2401.66 516.028C2404.75 519.08 2403.91 522.95 2398.86 526.609C2393.8 530.273 2390.7 534.513 2382.56 537.359C2377.21 539.235 2376.73 539.128 2375.44 538.834C2374.76 538.682 2373.87 538.48 2371.95 538.48ZM2377.04 531.632C2376.13 531.206 2374.99 530.594 2373.73 529.911L2373.31 529.687C2374.61 528.346 2376.22 526.741 2377.55 525.24C2380.16 522.272 2383.9 516.073 2385.58 515.129C2386.13 514.821 2386.46 514.542 2386.7 514.338C2387.2 513.917 2387.32 513.818 2388.2 514.454C2389.5 515.394 2388.95 518.609 2388.39 521.829L2388.39 521.866C2387.82 525.103 2382.22 529.014 2378.29 531.033C2377.87 531.252 2377.45 531.451 2377.04 531.632ZM2398.88 517.314C2399.59 520.235 2396.93 523.024 2394.27 521.63C2391.62 520.235 2391.79 517.729 2392.32 515.222C2392.85 512.716 2398.17 514.388 2398.88 517.314ZM2382.89 534.494C2383.84 532.882 2384.32 530.403 2383.76 529.897C2385.81 528.345 2388.19 526.865 2389.17 526.336C2390.62 525.547 2394.78 526.134 2393.87 528.231C2392.99 530.271 2385.94 533.244 2382.89 534.494ZM2371.08 532.315C2371.04 532.391 2371.02 532.457 2371.01 532.515C2370.92 532.958 2371.65 533.105 2372.87 532.925C2372.28 532.722 2371.68 532.518 2371.08 532.315ZM2055.23 555.508C2055.23 555.508 2052.32 553 2055.44 553C2058.55 553 2069.77 555.978 2069.98 558.325C2070.17 560.384 2069.07 560.162 2066.57 559.655C2066.21 559.583 2065.82 559.505 2065.41 559.426C2062.09 558.796 2055.44 555.663 2055.23 555.508ZM1139.87 565.379C1144.84 564.52 1156.67 565.163 1156.98 566.878C1157.29 568.598 1154.18 571.384 1152.94 570.956C1152.94 570.956 1134.89 566.235 1139.87 565.379ZM1854.83 574.548C1854.83 574.548 1848.9 569.966 1854.21 571.216C1859.5 572.465 1865.74 574.969 1863.55 575.177C1863.03 575.226 1862.48 575.369 1861.88 575.524C1859.98 576.016 1857.68 576.613 1854.83 574.548ZM1213.27 593.571C1213.27 593.571 1198.47 583.352 1208.47 586.659C1218.47 589.965 1228.87 595.677 1225.27 595.977C1221.67 596.277 1213.27 593.571 1213.27 593.571Z" id="形状结合备份-3" fill="url(#gradient_1)" fill-opacity="0.7" fill-rule="evenodd" stroke="none" />
          <g id="形状结合备份">
            <use xlink:href="#path_1" fill="none" stroke="#F3F9FF" stroke-opacity="0.47058824" stroke-width="2" />
          </g>
          <path d="M1.63358 66C10.3461 64.1746 17.7853 61.8514 23.9383 59.0857L21.37 56.0987L38.69 56.0987L35.3841 59.6941C42.3308 61.243 49.171 63.2896 55.9264 65.9447L59.4975 61.6302C53.3704 59.4176 46.6337 57.5922 39.2804 56.0987L52.5984 56.0987L53.9701 35.8536L35.9799 35.8536L36.3947 32.59L60.7776 32.59L61 27.8883L45.6369 27.8883L46.0213 24.0163L58.0448 24.0163L58.3167 19.3698L46.4847 19.3698L46.9228 15L41.6426 15L41.1224 19.3698L29.4653 19.3698L30.155 15.0553L24.8737 15.0553L24.103 19.3698L12.7372 19.3698L11.7274 24.0163L23.2772 24.0163L22.5924 27.8883L7.52938 27.8883L6.46471 32.59L30.7867 32.59L30.3117 35.8536L12.3215 35.8536L8.24887 56.0987L19.5331 56.0987C14.1592 58.256 7.66929 60.026 -8.66862e-13 61.4089L1.63358 66ZM38.5763 28L27 28L27.5677 25L39 25L38.5763 28ZM28.4714 44L16 44L16.6733 41L29 41L28.4714 44ZM46.6796 44L34 44L34.4676 41L47 41L46.6796 44ZM46.6907 52L34 52L34.4517 49L47 49L46.6907 52ZM28.4471 52L15 52L15.7038 49L29 49L28.4471 52ZM367.372 11L371 7.58796C368.063 5.04167 364.571 2.5463 360.588 2.16008e-12L357 3.36111C361.344 6.11111 364.794 8.65741 367.372 11ZM407.03 49C411.68 49 413.631 47.0023 412.822 43.0624L405.044 6.1052L409.476 6.1052L408.297 1L370 1L370.497 6.1052L399.337 6.1052L406.16 41.7306C406.471 43.3954 405.679 44.2832 403.899 44.2832C400.544 44.2832 397.035 44.1723 393.306 43.9503L395.441 49L407.03 49ZM366.184 23L370 19.455C367.17 16.9526 363.739 14.5024 359.835 12L356 15.3886C360.282 18.0995 363.725 20.6019 366.184 23ZM399 34L395.361 13L375 13L377.196 34L399 34ZM391 28L381.412 28L380 17L389.227 17L391 28ZM364.442 49C367.411 43.0077 369.909 36.6375 372 29.8355L366.442 28C364.224 34.3702 361.44 40.6324 358 46.7326L364.442 49Z" transform="translate(1786 481)" id="黄河" fill="#A2CEFF" fill-opacity="0.846326" stroke="none" />
        </g>
      </g>
    </g>
  </g>
</svg>