<?xml version="1.0" encoding="UTF-8"?>
<svg width="16px" height="16px" viewBox="0 0 16 16" version="1.1" xmlns="http://www.w3.org/2000/svg" xmlns:xlink="http://www.w3.org/1999/xlink">
    <title>面积图</title>
    <g id="517" stroke="none" stroke-width="1" fill="none" fill-rule="evenodd">
        <g id="画板" transform="translate(-1779.000000, -1745.000000)">
            <g id="编组-13" transform="translate(1779.000000, 1745.000000)">
                <rect id="矩形备份-192-copy-4备份-2-copy备份" x="0" y="0" width="16" height="16" rx="2"></rect>
                <rect id="矩形备份-10" fill="#1296DB" x="0.888888889" y="14.2222222" width="14.2222222" height="1" rx="0.5"></rect>
                <path d="M13.8535863,3.92542722 C13.9473344,4.01919273 14,4.14635556 14,4.27894765 L14,12.5 C14,12.7761424 13.7761424,13 13.5,13 L2.49993219,13 C2.22378981,13 1.99993219,12.7761424 1.99993219,12.5 L1.99993219,9.2781043 C1.99993219,9.14549752 2.05260944,9.01832185 2.1463758,8.9245539 L5.64638179,5.42448858 C5.81994046,5.25091454 6.08936401,5.23162641 6.28423321,5.36662074 L6.35348158,5.42448957 L8.64645061,7.71751043 C8.8417282,7.9127345 9.15828835,7.91275105 9.35358635,7.71754738 L13.1464796,3.9253613 C13.3417599,3.73011736 13.6583424,3.73014687 13.8535863,3.92542722 Z M13,5.485 L10.0605223,8.42482497 C9.51132349,8.97375847 8.64246068,9.0080232 8.05326788,8.52756405 L7.93933583,8.42460922 L6.002,6.482 L2.999,9.485 L2.999,12 L13,12 L13,5.485 Z" id="路径" fill="#1296DB" fill-rule="nonzero"></path>
            </g>
        </g>
    </g>
</svg>