<?xml version="1.0" standalone="no"?><!DOCTYPE svg PUBLIC "-//W3C//DTD SVG 1.1//EN" "http://www.w3.org/Graphics/SVG/1.1/DTD/svg11.dtd"><svg class="icon" width="16px" height="16.00px" viewBox="0 0 1024 1024" version="1.1" xmlns="http://www.w3.org/2000/svg"><path fill="#ffffff" d="M534.634 100.048c12.289 0 24.576 4.672 33.953 14.048l351.967 351.968c18.752 18.721 18.752 49.12 0 67.872L568.587 885.937c-18.752 18.752-49.121 18.752-67.873 0-18.751-18.721-18.751-49.12 0-67.872l318.016-318.049L500.714 182c-18.751-18.752-18.751-49.12 0-67.872C510.058 104.72 522.347 100.048 534.634 100.048zM159.467 100.048c12.289 0 24.576 4.672 33.953 14.048l351.967 351.968c18.752 18.721 18.752 49.12 0 67.872L193.42 885.937c-18.752 18.752-49.121 18.752-67.873 0-18.751-18.721-18.751-49.12 0-67.872l318.016-318.049L125.547 182c-18.751-18.752-18.751-49.12 0-67.872C134.891 104.72 147.18 100.048 159.467 100.048z" /></svg>