<?xml version="1.0" standalone="no"?><!DOCTYPE svg PUBLIC "-//W3C//DTD SVG 1.1//EN" "http://www.w3.org/Graphics/SVG/1.1/DTD/svg11.dtd"><svg class="icon" width="16px" height="16.00px" viewBox="0 0 1024 1024" version="1.1" xmlns="http://www.w3.org/2000/svg"><path fill="#ffffff" d="M262.826667 815.786667H580.266667c10.24 0 20.48-10.24 20.48-20.48s-10.24-20.48-20.48-20.48H262.826667c-10.24 0-20.48 10.24-20.48 20.48s10.24 20.48 20.48 20.48z m0-443.733334H580.266667c10.24 0 20.48-10.24 20.48-20.48s-10.24-20.48-20.48-20.48H262.826667c-10.24 0-20.48 10.24-20.48 20.48s6.826667 20.48 20.48 20.48z m0 146.773334H580.266667c10.24 0 20.48-10.24 20.48-20.48s-10.24-20.48-20.48-20.48H262.826667c-10.24 0-20.48 10.24-20.48 20.48 0 13.653333 10.24 20.48 20.48 20.48z m0 150.186666H580.266667c10.24 0 20.48-10.24 20.48-20.48s-10.24-20.48-20.48-20.48H262.826667c-10.24 0-20.48 10.24-20.48 20.48s10.24 20.48 20.48 20.48zM576.853333 819.2H262.826667c-13.653333 0-23.893333-10.24-23.893334-23.893333 0-13.653333 10.24-23.893333 23.893334-23.893334H580.266667c13.653333 0 23.893333 10.24 23.893333 23.893334 0 13.653333-13.653333 23.893333-27.306667 23.893333z m-314.026666-6.826667H580.266667c10.24 0 17.066667-6.826667 17.066666-17.066666s-6.826667-17.066667-17.066666-17.066667H262.826667c-10.24 0-17.066667 6.826667-17.066667 17.066667s6.826667 17.066667 17.066667 17.066666z m314.026666-139.946666H262.826667c-13.653333 0-23.893333-10.24-23.893334-23.893334 0-13.653333 10.24-23.893333 23.893334-23.893333H580.266667c13.653333 0 23.893333 10.24 23.893333 23.893333 0 13.653333-13.653333 23.893333-27.306667 23.893334z m-314.026666-40.96c-10.24 0-17.066667 6.826667-17.066667 17.066666s6.826667 17.066667 17.066667 17.066667H580.266667c10.24 0 17.066667-6.826667 17.066666-17.066667s-6.826667-17.066667-17.066666-17.066666H262.826667z m314.026666-109.226667H262.826667c-13.653333 0-23.893333-10.24-23.893334-23.893333 0-13.653333 10.24-23.893333 23.893334-23.893334H580.266667c13.653333 0 23.893333 10.24 23.893333 23.893334 0 13.653333-13.653333 23.893333-27.306667 23.893333z m-314.026666-40.96c-10.24 0-17.066667 6.826667-17.066667 17.066667s6.826667 17.066667 17.066667 17.066666H580.266667c10.24 0 17.066667-6.826667 17.066666-17.066666s-6.826667-17.066667-17.066666-17.066667H262.826667z m314.026666-105.813333H262.826667c-6.826667 0-13.653333-3.413333-17.066667-6.826667-3.413333-3.413333-6.826667-10.24-6.826667-17.066667s0-13.653333 6.826667-17.066666c3.413333-3.413333 10.24-6.826667 17.066667-6.826667H580.266667c13.653333 0 23.893333 10.24 23.893333 23.893333 0 13.653333-13.653333 23.893333-27.306667 23.893334zM262.826667 334.506667c-3.413333 0-6.826667 0-10.24 3.413333-3.413333 3.413333-3.413333 6.826667-3.413334 10.24 0 3.413333 0 10.24 3.413334 10.24 3.413333 3.413333 6.826667 3.413333 10.24 3.413333H580.266667c10.24 0 17.066667-6.826667 17.066666-17.066666s-6.826667-17.066667-17.066666-17.066667H262.826667v6.826667zM675.84 979.626667H167.253333c-47.786667 0-88.746667-40.96-88.746666-88.746667V256c0-47.786667 37.546667-88.746667 88.746666-88.746667h126.293334v47.786667H167.253333c-20.48 0-40.96 17.066667-40.96 40.96v634.88c0 20.48 17.066667 40.96 40.96 40.96h508.586667c20.48 0 40.96-17.066667 40.96-40.96v-64.853333h47.786667v64.853333c-3.413333 47.786667-40.96 88.746667-88.746667 88.746667zM832.853333 853.333333H716.8V256c0-20.48-17.066667-40.96-40.96-40.96H269.653333V129.706667c0-47.786667 37.546667-88.746667 88.746667-88.746667h474.453333c47.786667 0 88.746667 40.96 88.746667 88.746667v634.88c-3.413333 47.786667-40.96 88.746667-88.746667 88.746666z m-71.68-47.786666h68.266667c20.48 0 40.96-17.066667 40.96-40.96V129.706667c0-20.48-17.066667-40.96-40.96-40.96H358.4c-20.48 0-40.96 17.066667-40.96 40.96V170.666667h358.4c47.786667 0 88.746667 40.96 88.746667 88.746666v546.133334z" /></svg>