<?xml version="1.0" encoding="UTF-8"?>
<svg width="58px" height="70px" viewBox="0 0 58 70" version="1.1" xmlns="http://www.w3.org/2000/svg" xmlns:xlink="http://www.w3.org/1999/xlink">
    <title>绿色告警-透视的</title>
    <defs>
        <path d="M45.3642857,0 C34.9575801,0.138066952 28.1218658,0.207100427 24.8571429,0.207100427 C19.152707,0.207100427 4.55714286,-0.207100427 4.35,0.621301282 C4.21190476,1.17356909 3.72857143,6.8343141 2.9,17.6035363 L0,45.3549936 C0,45.3549936 7.03849219,51.1399902 24.65,51.1542363 C42.1772846,51.1695194 49.7142857,45.3549936 49.7142857,45.3549936 L45.3642857,0 Z" id="path-1"></path>
    </defs>
    <g id="页面-1" stroke="none" stroke-width="1" fill="none" fill-rule="evenodd">
        <g id="画板" transform="translate(-129.000000, -14.000000)">
            <g id="编组-14备份-6" transform="translate(129.000000, 14.000000)">
                <g id="编组">
                    <g transform="translate(3.521429, 0.000000)">
                        <path d="M45.9442857,3.87380704 C45.9442857,2.42410405 35.3407326,0.025268621 25.4807326,0 C14.9164469,-0.0244354816 4.93828571,2.1610865 4.93828571,3.87380704 L4.97358973,52.9145758 C4.97358973,52.9145758 16.3995897,54.467829 25.1700183,54.467829 C33.5137326,54.467829 45.9878754,52.9145758 45.9878754,52.9145758 L45.9442857,3.87380704 Z" id="路径" fill="#DC4741"></path>
                        <path d="M46.47372,3.96915977 C46.47372,2.4838506 35.4947142,0.026097325 25.3843437,0.000634882013 C14.5518039,-0.024827561 4.42647314,2.21437307 4.42647314,3.96915977 L0,54.8600959 C0,54.8600959 16.5674139,55.8573749 25.560546,55.8573749 C34.1161284,55.8573749 50.891697,54.8600959 50.891697,54.8600959 L46.47372,3.96915977 Z" id="路径" fill="#04C766"></path>
                        <g transform="translate(5.317357, 13.064924)" fill="#FFCC66" fill-rule="nonzero">
                            <g>
                                <rect id="矩形" x="20.1757143" y="21.9091542" width="1" height="1"></rect>
                                <line x1="20.1757143" y1="21.9091542" x2="20.1757143" y2="21.9091542" id="路径"></line>
                                <rect id="矩形" x="20.1757143" y="21.9091542" width="1" height="1"></rect>
                                <rect id="矩形" x="20.1757143" y="21.9091542" width="1" height="1"></rect>
                                <rect id="矩形" x="20.1757143" y="21.9091542" width="1" height="1"></rect>
                            </g>
                        </g>
                    </g>
                    <g id="编组-12" transform="translate(0.000000, 47.633098)">
                        <g id="编组-16">
                            <path d="M29.3333333,22.3666514 C5.66134145,22.3535103 0,16.4817823 0,16.4817823 L0.0773166791,4.14200855 L58,4.14200855 L57.9518904,16.4817823 C57.9518904,16.4817823 53.0053252,22.3797925 29.3333333,22.3666514 Z" id="Fill-296备份-2" fill="#3E3E47"></path>
                            <path d="M44.7992842,22.3669017 C24.1250878,22.3537656 19.2422623,16.4249283 19.2422623,16.4249283 L19.3097877,4.14200855 C26.9485813,7.09769363 35.4450801,8.57553618 44.7992842,8.57553618 C58.8305903,8.57553618 65.4734806,22.3799267 44.7992842,22.3669017 Z" id="Fill-296备份-3" fill="#494952" transform="translate(38.586607, 13.254455) scale(-1, 1) translate(-38.586607, -13.254455) "></path>
                            <path d="M58,4.1655582 C58,6.89424626 47.8153452,10.3550214 29.1760243,10.3550214 C10.8337443,10.3550214 0,6.89424626 0,4.1655582 C0,1.43687014 13.1605653,0 29.1760243,0 C45.1914833,0 58,1.43687014 58,4.1655582" id="Fill-299备份-2" fill="#5F5F6B"></path>
                        </g>
                        <rect id="矩形备份-2" fill="#757685" x="49.7142857" y="9.73372009" width="3.93571429" height="7.04141453" rx="1.95588235"></rect>
                    </g>
                </g>
                <g id="编组-13备份" transform="translate(4.142857, 4.142009)">
                    <mask id="mask-2" fill="white">
                        <use xlink:href="#path-1"></use>
                    </mask>
                    <use id="蒙版" fill="#04C766" xlink:href="#path-1"></use>
                    <path d="M24.8882143,2.48520513 C36.2139965,2.48520513 45.1571429,0.927679739 45.1571429,-0.621301282 C45.1571429,-2.1702823 34.8177575,-4.14200855 24.9321503,-4.14200855 C15.0465432,-4.14200855 4.38107143,-1.86845413 4.38107143,-0.319473113 C4.38107143,1.22950791 13.562432,2.48520513 24.8882143,2.48520513 Z" id="椭圆形" fill="#A41715" fill-rule="nonzero" style="mix-blend-mode: multiply;" mask="url(#mask-2)"></path>
                    <path d="M41.876,50.7423034 C40.1221473,49.2708275 34.0573929,43.0768889 24.65,43.0768889 C15.2426071,43.0768889 9.0604933,49.2820235 7.31466741,50.7487011 C12.4498036,50.9534282 19.4130402,51.1917433 24.2632254,51.2045387 C32.5655975,51.0339328 38.4365223,50.8798544 41.876,50.7423034 Z" id="路径" fill="#066C39" mask="url(#mask-2)"></path>
                    <path d="M32.5214286,27.7514573 L32.5214286,42.8697885 L27.7571429,39.3490812 L27.7564286,37.6914573 L26.0994286,37.6914573 L26.1,44.5265919 L22.9928571,44.5265919 L22.9924286,37.6914573 L21.3354286,37.6914573 L21.3357143,39.3490812 L16.5714286,42.8697885 L16.5714286,27.7514573 L21.3357143,31.0650641 L21.3354286,32.9284573 L22.9924286,32.9284573 L22.9928571,29.4082607 L26.1,29.4082607 L26.0994286,32.9284573 L27.7564286,32.9284573 L27.7571429,31.0650641 L32.5214286,27.7514573 Z" id="形状结合" fill="#066C39" mask="url(#mask-2)"></path>
                    <g id="编组-13" mask="url(#mask-2)">
                        <g transform="translate(0.000000, -5.591712)">
                            <path d="M44.95,0 C43.1815322,0.522171386 38.7245325,1.73110026 35.6285714,2.07100427 C35.6696986,2.26805008 36.6505767,45.9919095 36.6642857,59.4378227 C40.2103607,59.2736178 44.3532178,57.0645466 49.0928571,52.810609 C46.5000307,17.9417983 45.1190783,0.338261967 44.95,0 Z" id="路径" fill="#71F8B5" opacity="0.598446801"></path>
                            <path d="M39.5642857,0.82840171 C37.6664178,1.32935412 35.4596777,2.03815451 32.1371829,2.36424617 C32.1813193,2.55328482 32.2352639,43.7424424 32.249976,56.6419669 C37.9582918,56.4056686 40.4474413,56.0399905 42.6714286,55.9171154 C41.3939232,42.2118137 39.8364606,1.31517622 39.5642857,0.82840171 Z" id="路径备份-3" fill="#71F8B5" opacity="0.475027902"></path>
                            <path d="M12.2214286,55.9171154 C13.4394286,19.7299576 14.0608571,1.57415343 14.0857143,1.44970299 C11.2126429,1.12361133 6.89880741,1.23289285 5.26859312,0.724851496 C5.03866455,1.211626 1.07921429,39.5195081 0,53.2248098 C1.25942857,53.3083019 5.3332381,54.2057371 12.2214286,55.9171154 Z" id="路径" fill="#066C39"></path>
                            <path d="M6.83571429,56.3313162 C11.8313434,56.5376084 12.6968231,56.5707755 19.2642857,56.7455171 L20.9214286,2.07100427 C16.1748027,1.90354357 13.8587521,2.20367919 10.3571429,1.86390385 L6.83571429,56.3313162 Z" id="路径" fill="#09924E" opacity="0.666062128"></path>
                        </g>
                    </g>
                </g>
                <path d="M28.7928571,7.04141453 C40.0042376,7.04141453 49.5071429,5.79881197 49.5071429,4.14200855 C49.5071429,2.48520513 38.6531733,0.414200855 28.8674208,0.414200855 C19.0816683,0.414200855 8.49285714,2.44781056 8.49285714,4.14200855 C8.49285714,5.83620654 17.5814767,7.04141453 28.7928571,7.04141453 Z" id="椭圆形备份" fill="#04C766"></path>
                <path d="M28.9585714,6.49362745 C39.6379833,6.49362745 48.2953571,5.38096321 48.2953571,4.00842232 C48.2953571,2.63588142 38.3214286,0.621301282 29,0.621301282 C19.6785714,0.621301282 9.62178571,2.63588142 9.62178571,4.00842232 C9.62178571,5.38096321 18.2791596,6.49362745 28.9585714,6.49362745 Z" id="椭圆形备份-2" fill="#066C39"></path>
                <path d="M28.9585714,5.42084723 C25.1421427,5.42084723 21.5555493,5.32859028 18.4372252,5.16657653 C14.6889916,4.97183558 11.6153367,4.39611126 9.63430402,4.0388749 C9.63430402,5.17792725 16.4700183,6.62763025 29.0021612,6.62763025 C41.534304,6.62763025 47.9888754,5.13236516 48.3700183,4.0388749 C44.7408754,4.69331225 37.3623571,5.42084723 28.9585714,5.42084723 Z" id="路径备份-4" fill="#02AF59"></path>
            </g>
        </g>
    </g>
</svg>