<?xml version="1.0" encoding="UTF-8"?>
<svg width="58px" height="70px" viewBox="0 0 58 70" version="1.1" xmlns="http://www.w3.org/2000/svg" xmlns:xlink="http://www.w3.org/1999/xlink">
    <title>红色告警透视的</title>
    <defs>
        <path d="M45.3642857,0 C34.9575801,0.138066952 28.1218658,0.207100427 24.8571429,0.207100427 C19.152707,0.207100427 4.55714286,-0.207100427 4.35,0.621301282 C4.21190476,1.17356909 3.72857143,6.8343141 2.9,17.6035363 L0,45.3549936 C0,45.3549936 7.03849219,51.1399902 24.65,51.1542363 C42.1772846,51.1695194 49.7142857,45.3549936 49.7142857,45.3549936 L45.3642857,0 Z" id="path-1"></path>
        <polygon id="path-3" points="32.5214286 33.3431688 32.5214286 48.4615 27.7571429 44.9407927 27.7566407 43.2831688 26.0992468 43.2831688 26.1 50.1183034 22.9928571 50.1183034 22.9927316 43.2831688 21.3353377 43.2831688 21.3357143 44.9407927 16.5714286 48.4615 16.5714286 33.3431688 21.3357143 36.6567756 21.3353377 38.5205438 22.9927316 38.5205438 22.9928571 34.9999722 26.1 34.9999722 26.0992468 38.5205438 27.7566407 38.5205438 27.7571429 36.6567756"></polygon>
        <filter x="-72.1%" y="-73.0%" width="244.2%" height="261.1%" filterUnits="objectBoundingBox" id="filter-4">
            <feMorphology radius="1.5" operator="dilate" in="SourceAlpha" result="shadowSpreadOuter1"></feMorphology>
            <feOffset dx="0" dy="2" in="shadowSpreadOuter1" result="shadowOffsetOuter1"></feOffset>
            <feGaussianBlur stdDeviation="2" in="shadowOffsetOuter1" result="shadowBlurOuter1"></feGaussianBlur>
            <feColorMatrix values="0 0 0 0 1   0 0 0 0 1   0 0 0 0 1  0 0 0 0.810342002 0" type="matrix" in="shadowBlurOuter1"></feColorMatrix>
        </filter>
        <linearGradient x1="50%" y1="100%" x2="50%" y2="150%" id="linearGradient-5">
            <stop stop-color="#FF1F1F" offset="0%"></stop>
            <stop stop-color="#E59A95" offset="100%"></stop>
        </linearGradient>
        <filter x="-57.2%" y="-63.0%" width="214.4%" height="226.1%" filterUnits="objectBoundingBox" id="filter-6">
            <feGaussianBlur stdDeviation="5.69923372" in="SourceGraphic"></feGaussianBlur>
        </filter>
    </defs>
    <g id="页面-1" stroke="none" stroke-width="1" fill="none" fill-rule="evenodd">
        <g id="画板" transform="translate(-24.000000, -14.000000)">
            <g id="编组-14备份-6" transform="translate(24.000000, 14.000000)">
                <g id="编组">
                    <g transform="translate(3.521429, 0.000000)">
                        <path d="M45.9442857,3.87380704 C45.9442857,2.42410405 35.3407326,0.025268621 25.4807326,0 C14.9164469,-0.0244354816 4.93828571,2.1610865 4.93828571,3.87380704 L4.97358973,52.9145758 C4.97358973,52.9145758 16.3995897,54.467829 25.1700183,54.467829 C33.5137326,54.467829 45.9878754,52.9145758 45.9878754,52.9145758 L45.9442857,3.87380704 Z" id="路径" fill="#DC4741"></path>
                        <path d="M46.47372,3.96915977 C46.47372,2.4838506 35.4947142,0.026097325 25.3843437,0.000634882013 C14.5518039,-0.024827561 4.42647314,2.21437307 4.42647314,3.96915977 L0,54.8600959 C0,54.8600959 16.5674139,55.8573749 25.560546,55.8573749 C34.1161284,55.8573749 50.891697,54.8600959 50.891697,54.8600959 L46.47372,3.96915977 Z" id="路径" fill="#DC4741"></path>
                        <g transform="translate(5.317357, 13.064924)" fill="#FFCC66" fill-rule="nonzero">
                            <g transform="translate(0.000000, -0.000000)">
                                <rect id="矩形" x="20.1757143" y="21.9091542" width="1" height="1"></rect>
                                <line x1="20.1757143" y1="21.9091542" x2="20.1757143" y2="21.9091542" id="路径"></line>
                                <rect id="矩形" x="20.1757143" y="21.9091542" width="1" height="1"></rect>
                                <rect id="矩形" x="20.1757143" y="21.9091542" width="1" height="1"></rect>
                                <rect id="矩形" x="20.1757143" y="21.9091542" width="1" height="1"></rect>
                            </g>
                        </g>
                    </g>
                    <g id="编组-12" transform="translate(0.000000, 47.633098)">
                        <g id="编组-16">
                            <path d="M29.3333333,22.3666514 C5.66134145,22.3535103 0,16.4817823 0,16.4817823 L0.0773166791,4.14200855 L58,4.14200855 L57.9518904,16.4817823 C57.9518904,16.4817823 53.0053252,22.3797925 29.3333333,22.3666514 Z" id="Fill-296备份-2" fill="#3E3E47"></path>
                            <path d="M44.7992842,22.3669017 C24.1250878,22.3537656 19.2422623,16.4249283 19.2422623,16.4249283 L19.3097877,4.14200855 C26.9485813,7.09769363 35.4450801,8.57553618 44.7992842,8.57553618 C58.8305903,8.57553618 65.4734806,22.3799267 44.7992842,22.3669017 Z" id="Fill-296备份-3" fill="#494952" transform="translate(38.586607, 13.254455) scale(-1, 1) translate(-38.586607, -13.254455) "></path>
                            <path d="M58,4.1655582 C58,6.89424626 47.8153452,10.3550214 29.1760243,10.3550214 C10.8337443,10.3550214 0,6.89424626 0,4.1655582 C0,1.43687014 13.1605653,0 29.1760243,0 C45.1914833,0 58,1.43687014 58,4.1655582" id="Fill-299备份-2" fill="#5F5F6B"></path>
                        </g>
                        <rect id="矩形备份-2" fill="#757685" x="49.7142857" y="9.73372009" width="3.93571429" height="7.04141453" rx="1.96745406"></rect>
                    </g>
                </g>
                <g id="编组-13备份" transform="translate(4.142857, 4.142009)">
                    <mask id="mask-2" fill="white">
                        <use xlink:href="#path-1"></use>
                    </mask>
                    <use id="蒙版" fill="#DC4741" xlink:href="#path-1"></use>
                    <path d="M24.8882143,2.48520513 C36.2139965,2.48520513 45.1571429,0.927679739 45.1571429,-0.621301282 C45.1571429,-2.1702823 34.8177575,-4.14200855 24.9321503,-4.14200855 C15.0465432,-4.14200855 4.38107143,-1.86845413 4.38107143,-0.319473113 C4.38107143,1.22950791 13.562432,2.48520513 24.8882143,2.48520513 Z" id="椭圆形" fill="#A41715" fill-rule="nonzero" style="mix-blend-mode: multiply;" mask="url(#mask-2)"></path>
                    <path d="M41.876,50.7423034 C40.1221473,49.2708275 34.0573929,43.0768889 24.65,43.0768889 C15.2426071,43.0768889 9.0604933,49.2820235 7.31466741,50.7487011 C12.4498036,50.9534282 19.4130402,51.1917433 24.2632254,51.2045387 C32.5655975,51.0339328 38.4365223,50.8798544 41.876,50.7423034 Z" id="路径" fill="#950A0C" mask="url(#mask-2)"></path>
                    <g id="编组-13" mask="url(#mask-2)">
                        <g transform="translate(0.000000, -5.591712)">
                            <path d="M44.95,0 C43.1815322,0.522171386 38.7245325,1.73110026 35.6285714,2.07100427 C35.6696986,2.26805008 36.6505767,45.9919095 36.6642857,59.4378227 C40.2103607,59.2736178 44.3532178,57.0645466 49.0928571,52.810609 C46.5000307,17.9417983 45.1190783,0.338261967 44.95,0 Z" id="路径" fill="#FFB5B2" fill-rule="evenodd" opacity="0.614397321"></path>
                            <g id="路径" fill="none" opacity="0.978445871" style="mix-blend-mode: screen;">
                                <use fill="black" fill-opacity="1" filter="url(#filter-4)" xlink:href="#path-3"></use>
                                <use fill="#FFFFFF" fill-rule="evenodd" xlink:href="#path-3"></use>
                            </g>
                            <ellipse id="椭圆形备份-3" fill="url(#linearGradient-5)" fill-rule="evenodd" style="mix-blend-mode: overlay;" filter="url(#filter-6)" cx="24.2626687" cy="39.512203" rx="14.9393939" ry="13.5625"></ellipse>
                            <path d="M37.80671,0.82840171 C35.9088421,1.32935412 33.7021019,2.03815451 30.3796071,2.36424617 C30.4237436,2.55328482 30.4776881,43.7424424 30.4924003,56.6419669 C36.2007161,56.4056686 38.6898655,56.0399905 40.9138528,55.9171154 C39.6363474,42.2118137 38.0788848,1.31517622 37.80671,0.82840171 Z" id="路径备份-3" fill="#FFB5B2" fill-rule="evenodd" opacity="0.3460984"></path>
                            <path d="M12.2214286,55.9171154 C13.4394286,19.7299576 14.0608571,1.57415343 14.0857143,1.44970299 C11.2126429,1.12361133 6.89880741,1.23289285 5.26859312,0.724851496 C5.03866455,1.211626 1.07921429,39.5195081 0,53.2248098 C1.25942857,53.3083019 5.3332381,54.2057371 12.2214286,55.9171154 Z" id="路径" fill="#A41715" fill-rule="evenodd"></path>
                            <path d="M6.83571429,56.3313162 C11.8313434,56.5376084 12.6968231,56.5707755 19.2642857,56.7455171 L20.9214286,2.07100427 C16.1748027,1.90354357 13.8587521,2.20367919 10.3571429,1.86390385 L6.83571429,56.3313162 Z" id="路径" fill="#C22C29" fill-rule="evenodd" opacity="0.667131696"></path>
                        </g>
                    </g>
                </g>
                <path d="M28.7928571,7.04141453 C40.0042376,7.04141453 49.5071429,5.79881197 49.5071429,4.14200855 C49.5071429,2.48520513 38.6531733,0.414200855 28.8674208,0.414200855 C19.0816683,0.414200855 8.49285714,2.44781056 8.49285714,4.14200855 C8.49285714,5.83620654 17.5814767,7.04141453 28.7928571,7.04141453 Z" id="椭圆形备份" fill="#DC4741"></path>
                <path d="M27.4109354,6.48578356 L28.180856,6.4916541 L28.180856,6.4916541 L29.7362869,6.4916541 L29.7362869,6.4916541 L30.8880641,6.48141004 L30.8880641,6.48141004 L31.6452092,6.4698329 L31.6452092,6.4698329 L32.7634232,6.44553116 L32.7634232,6.44553116 L33.8588997,6.41312889 L33.8588997,6.41312889 L34.9296893,6.37287665 L34.9296893,6.37287665 L35.9738424,6.32502501 L35.9738424,6.32502501 L36.9894095,6.26982452 L36.9894095,6.26982452 L37.9744409,6.20752575 L37.9744409,6.20752575 L38.9269872,6.13837926 L38.9269872,6.13837926 L40.1431468,6.035965 L40.1431468,6.035965 L41.0123126,5.9518149 L41.0123126,5.9518149 L41.8424948,5.86165228 L41.8424948,5.86165228 L42.6317437,5.76572772 L42.6317437,5.76572772 L43.3781098,5.66429175 L43.3781098,5.66429175 L44.0796435,5.55759496 L44.0796435,5.55759496 L44.521463,5.48366482 L44.521463,5.48366482 L44.9419129,5.40758213 L44.9419129,5.40758213 L45.5312561,5.28958447 L45.5312561,5.28958447 L45.8957547,5.20844521 L45.8957547,5.20844521 L46.236862,5.12541325 L46.236862,5.12541325 L46.5540002,5.04056283 C46.604827,5.02627368 46.6546311,5.01191185 46.7034004,4.9974789 L46.983502,4.91003998 L46.983502,4.91003998 L47.2381904,4.8209682 C47.3187868,4.79101371 47.3950514,4.76079945 47.466888,4.73033779 L47.6690172,4.63822301 C48.077764,4.43708651 48.2953571,4.22602026 48.2953571,4.00842232 C48.2953571,3.77408607 48.0046239,3.52103481 47.4760422,3.26248978 L47.2350992,3.15138696 C47.1925665,3.13282662 47.1488587,3.11424788 47.1039952,3.09565556 L46.8211003,2.98397732 L46.8211003,2.98397732 L46.5113939,2.87220456 L46.5113939,2.87220456 L46.1758009,2.76056856 L46.1758009,2.76056856 L45.8152466,2.64930059 L45.8152466,2.64930059 L45.430656,2.53863192 L45.430656,2.53863192 L45.0229543,2.42879384 L45.0229543,2.42879384 L44.3700918,2.26609997 L44.3700918,2.26609997 L43.9086594,2.15935017 L43.9086594,2.15935017 L43.4273536,2.05424041 L43.4273536,2.05424041 L42.9270996,1.95100198 L42.9270996,1.95100198 L42.1432143,1.80015896 L42.1432143,1.80015896 L41.599637,1.70261066 L41.599637,1.70261066 L41.0403492,1.60774313 L41.0403492,1.60774313 L40.4662762,1.51578767 L40.4662762,1.51578767 L39.8783429,1.42697554 L39.8783429,1.42697554 L38.9724787,1.300157 L38.9724787,1.300157 L38.3539422,1.22021503 L38.3539422,1.22021503 L37.7247833,1.14422586 L37.7247833,1.14422586 L37.0859271,1.07242075 L37.0859271,1.07242075 L36.4382988,1.005031 L36.4382988,1.005031 L35.7828233,0.942287866 L35.7828233,0.942287866 L35.1204258,0.88442263 L35.1204258,0.88442263 L34.4520315,0.831666566 L34.4520315,0.831666566 L33.4402194,0.762618083 L33.4402194,0.762618083 L32.420118,0.706366161 L32.420118,0.706366161 L31.7369871,0.676359538 L31.7369871,0.676359538 L31.0524847,0.652618464 L31.0524847,0.652618464 L30.367536,0.635374213 L30.367536,0.635374213 L29.6830661,0.624858061 L29.6830661,0.624858061 L29,0.621301282 L29,0.621301282 L27.9868702,0.629071563 L27.9868702,0.629071563 L27.309758,0.642653086 L27.309758,0.642653086 L26.6323489,0.662695493 L26.6323489,0.662695493 L25.9555488,0.688975768 L25.9555488,0.688975768 L25.2802637,0.721270894 L25.2802637,0.721270894 L24.6073997,0.759357856 L24.6073997,0.759357856 L23.9378626,0.803013637 L23.9378626,0.803013637 L23.2725584,0.85201522 L23.2725584,0.85201522 L22.6123932,0.906139591 L22.6123932,0.906139591 L21.6337626,0.996443524 L21.6337626,0.996443524 L20.6717907,1.09701926 L20.6717907,1.09701926 L19.729535,1.20711413 L19.729535,1.20711413 L18.8100533,1.32597543 L18.8100533,1.32597543 L17.9164032,1.45285051 L17.9164032,1.45285051 L17.3364974,1.54151429 L17.3364974,1.54151429 L16.7703371,1.63318221 L16.7703371,1.63318221 L16.2188285,1.72763124 L16.2188285,1.72763124 L15.4210191,1.87403154 L15.4210191,1.87403154 L14.661272,2.02543488 L14.661272,2.02543488 L14.1774296,2.12877822 L14.1774296,2.12877822 L13.7127686,2.2337876 L13.7127686,2.2337876 L13.2681951,2.34024 L13.2681951,2.34024 L12.844615,2.4479124 L12.844615,2.4479124 L12.4429342,2.55658179 L12.4429342,2.55658179 L12.0640589,2.66602516 L12.0640589,2.66602516 L11.7088948,2.77601947 L11.7088948,2.77601947 L11.3783481,2.88634173 L11.3783481,2.88634173 L11.0733247,2.99676892 L11.0733247,2.99676892 L10.7947305,3.107078 C10.7063713,3.14380324 10.6225679,3.18047162 10.5434715,3.21704599 L10.3204537,3.32644984 C9.8684974,3.56271933 9.62178571,3.79344603 9.62178571,4.00842232 C9.62178571,4.29297348 9.99388284,4.56635504 10.6789525,4.8209682 L10.9336409,4.91003998 L10.9336409,4.91003998 L11.2137425,4.9974789 L11.2137425,4.9974789 L11.5186795,5.08321071 L11.5186795,5.08321071 L11.8478745,5.16716118 L11.8478745,5.16716118 L12.2007496,5.24925607 L12.2007496,5.24925607 L12.5767273,5.32942113 L12.5767273,5.32942113 L12.9752299,5.40758213 L12.9752299,5.40758213 L13.3956798,5.48366482 L13.3956798,5.48366482 L13.8374993,5.55759496 L13.8374993,5.55759496 L14.3001108,5.62929832 L14.3001108,5.62929832 L15.0317494,5.73251573 L15.0317494,5.73251573 L15.8069207,5.83030527 L15.8069207,5.83030527 L16.3469236,5.89235908 L16.3469236,5.89235908 L16.9048302,5.9518149 L16.9048302,5.9518149 L17.7739961,6.035965 L17.7739961,6.035965 L18.6801961,6.11385202 L18.6801961,6.11385202 L19.9427019,6.20752575 L19.9427019,6.20752575 L20.9277334,6.26982452 L20.9277334,6.26982452 L21.9433004,6.32502501 L21.9433004,6.32502501 L22.6363466,6.35775811 L22.6363466,6.35775811 L24.0582431,6.41312889 L24.0582431,6.41312889 L25.1537197,6.44553116 L25.1537197,6.44553116 L26.2719336,6.4698329 L26.2719336,6.4698329 L27.4109354,6.48578356 L27.4109354,6.48578356 Z" id="椭圆形备份-2" fill="#A41715" fill-rule="nonzero" style="mix-blend-mode: multiply;"></path>
                <path d="M28.9585714,5.42084723 C25.1421427,5.42084723 21.5555493,5.32859028 18.4372252,5.16657653 C14.6889916,4.97183558 11.6153367,4.39611126 9.63430402,4.0388749 C9.63430402,5.17792725 16.4700183,6.62763025 29.0021612,6.62763025 C41.534304,6.62763025 47.9888754,5.13236516 48.3700183,4.0388749 C44.7408754,4.69331225 37.3623571,5.42084723 28.9585714,5.42084723 Z" id="路径备份-4" fill="#C22C29"></path>
            </g>
        </g>
    </g>
</svg>