<?xml version="1.0" encoding="UTF-8"?>
<svg width="1920px" height="1080px" viewBox="0 0 1920 1080" version="1.1" xmlns="http://www.w3.org/2000/svg" xmlns:xlink="http://www.w3.org/1999/xlink">
    <defs>
        <linearGradient x1="100%" y1="11.4499274%" x2="83.3806836%" y2="88.5500726%" id="linearGradient-1">
            <stop stop-color="#FFFFFF" stop-opacity="0.0772730687" offset="0%"></stop>
            <stop stop-color="#C8FFE9" stop-opacity="0.253592965" offset="11.3708466%"></stop>
            <stop stop-color="#EAFFF7" stop-opacity="0.24884332" offset="89.4011951%"></stop>
            <stop stop-color="#FFFFFF" stop-opacity="0.0790281496" offset="100%"></stop>
        </linearGradient>
        <linearGradient x1="100%" y1="41.9998903%" x2="0%" y2="58.0001097%" id="linearGradient-2">
            <stop stop-color="#FFFFFF" stop-opacity="0.0772730687" offset="0%"></stop>
            <stop stop-color="#C8FFE9" stop-opacity="0.299009096" offset="43.9325971%"></stop>
            <stop stop-color="#ECFFF7" stop-opacity="0.120737256" offset="82.4482096%"></stop>
            <stop stop-color="#FFFFFF" stop-opacity="0" offset="100%"></stop>
        </linearGradient>
        <linearGradient x1="100%" y1="15.4817836%" x2="0%" y2="84.5182164%" id="linearGradient-3">
            <stop stop-color="#FFFFFF" stop-opacity="0.0772730687" offset="0%"></stop>
            <stop stop-color="#C8FFE9" stop-opacity="0.299009096" offset="43.9325971%"></stop>
            <stop stop-color="#ECFFF7" stop-opacity="0.120737256" offset="82.4482096%"></stop>
            <stop stop-color="#FFFFFF" stop-opacity="0" offset="100%"></stop>
        </linearGradient>
        <linearGradient x1="100%" y1="7.62513627%" x2="83.3806836%" y2="92.3748637%" id="linearGradient-4">
            <stop stop-color="#FFFFFF" stop-opacity="0.0772730687" offset="0%"></stop>
            <stop stop-color="#C8FFE9" stop-opacity="0.20102761" offset="48.6608769%"></stop>
            <stop stop-color="#FFFFFF" stop-opacity="0.0790281496" offset="100%"></stop>
        </linearGradient>
        <linearGradient x1="92.7239584%" y1="36.9974515%" x2="0%" y2="52.2375017%" id="linearGradient-5">
            <stop stop-color="#FFFFFF" stop-opacity="0.0772730687" offset="0%"></stop>
            <stop stop-color="#C8FFE9" stop-opacity="0.20102761" offset="62.3031396%"></stop>
            <stop stop-color="#FFFFFF" stop-opacity="0.0790281496" offset="100%"></stop>
        </linearGradient>
    </defs>
    <g id="页面-1" stroke="none" stroke-width="1" fill="none" fill-rule="evenodd">
        <g id="线">
            <rect id="矩形" x="0" y="0" width="1920" height="1080"></rect>
            <path d="M530.068581,375.109954 C532.216994,374.595545 534.375637,375.920167 534.890046,378.068581 C535.388379,380.149856 534.160825,382.240732 532.130389,382.837054 L531.931419,382.890046 L185.837,465.757 L598.847855,741.473188 C600.627386,742.660186 601.146993,745.024605 600.067107,746.841124 L599.953769,747.020886 C598.766771,748.800416 596.402351,749.320024 594.585832,748.240138 L594.406071,748.1268 L177.587276,469.869044 C174.83126,468.029196 174.088558,464.303513 175.928405,461.547496 C176.715398,460.368613 177.892442,459.509019 179.248046,459.116086 L179.521485,459.043766 L530.068581,375.109954 Z" id="路径" fill="url(#linearGradient-1)" fill-rule="nonzero"></path>
            <path d="M605.547879,763.27289 C607.606305,762.470906 609.925125,763.489454 610.72711,765.547879 C611.504032,767.541979 610.572428,769.780454 608.642028,770.647534 L608.452121,770.72711 L146.452121,950.72711 C144.393695,951.529094 142.074875,950.510546 141.27289,948.452121 C140.495968,946.458021 141.427572,944.219546 143.357972,943.352466 L143.547879,943.27289 L605.547879,763.27289 Z" id="路径-2" fill="url(#linearGradient-2)" fill-rule="nonzero"></path>
            <path d="M678.638813,792.831493 C679.797814,791.035042 682.153781,790.477006 683.986993,791.528305 L684.168507,791.638813 L742.978587,829.5808 C745.763085,831.377251 746.564056,835.090843 744.767606,837.875341 C744.161515,838.814782 743.306083,839.564606 742.299483,840.042572 L742.04474,840.156352 L640.545943,882.689182 C638.508464,883.542982 636.164619,882.583422 635.310818,880.545943 C634.483699,878.572135 635.358377,876.31081 637.266224,875.395173 L637.454057,875.310818 L735.45,834.244 L679.831493,798.361187 C678.035042,797.202186 677.477006,794.846219 678.528305,793.013007 L678.638813,792.831493 Z" id="路径-2" fill="url(#linearGradient-3)" fill-rule="nonzero"></path>
            <path d="M630.630872,592.241611 C632.706574,591.485462 635.002241,592.555171 635.758389,594.630872 C636.490908,596.641708 635.509902,598.858977 633.560752,599.683044 L633.369128,599.758389 L500.886,648.02 L609.185071,718.649558 C610.975779,719.817411 611.52218,722.176104 610.461845,724.004104 L610.350442,724.185071 C609.182589,725.975779 606.823896,726.52218 604.995896,725.461845 L604.814929,725.350442 L493.165576,652.535647 C492.078088,651.826416 491.249991,650.783574 490.805599,649.563675 C489.697754,646.522531 491.20279,643.166606 494.174731,641.955245 L494.389491,641.8724 L630.630872,592.241611 Z" id="路径-3" fill="url(#linearGradient-4)" fill-rule="nonzero"></path>
            <path d="M1503.22161,310.687084 C1503.92405,308.665546 1506.08522,307.566453 1508.11677,308.158961 L1508.31292,308.221607 L1880.69625,437.617409 C1882.21619,438.145558 1883.4603,439.26208 1884.14919,440.716244 C1885.53489,443.641263 1884.34826,447.12254 1881.50176,448.604867 L1881.29563,448.707313 L896.700741,915.146711 C894.933642,915.983852 892.875155,915.905312 891.182111,914.949186 L890.953568,914.813369 L694.878928,792.351067 C692.997338,791.180806 692.434964,788.713181 693.605225,786.839472 C694.737736,785.026206 697.08526,784.433655 698.933703,785.457937 L699.11682,785.565769 L894.263,907.448 L1873.453,443.57 L1505.68708,315.778393 C1503.66555,315.075948 1502.56645,312.91478 1503.15896,310.883228 L1503.22161,310.687084 Z" id="路径-4" fill="url(#linearGradient-5)" fill-rule="nonzero"></path>
        </g>
    </g>
</svg>