<?xml version="1.0" encoding="UTF-8"?>
<svg width="30px" height="30px" viewBox="0 0 30 30" version="1.1" xmlns="http://www.w3.org/2000/svg" xmlns:xlink="http://www.w3.org/1999/xlink">
    <title>编组 17</title>
    <defs>
        <linearGradient x1="14.6610975%" y1="14.6612108%" x2="85.3386759%" y2="85.3387892%" id="linearGradient-1">
            <stop stop-color="#5DF4FF" offset="0%"></stop>
            <stop stop-color="#3399FF" offset="100%"></stop>
        </linearGradient>
    </defs>
    <g id="0804" stroke="none" stroke-width="1" fill="none" fill-rule="evenodd">
        <g id="大屏-默认状态-储能放电+切图" transform="translate(-756.000000, -601.000000)">
            <g id="编组-5" transform="translate(745.000000, 594.000000)">
                <g id="编组-17" transform="translate(11.000000, 7.000000)">
                    <g id="DT-Guideline-/-component-/-04-icons-/-01-domain-/-power" transform="translate(5.000000, 5.000000)">
                        <rect id="Rectangle" x="0" y="0" width="20" height="20"></rect>
                        <path d="M9.57004417,13.520916 L9.57004417,18.3183924 C9.57004417,19.1244998 10.5900426,19.4744654 11.08495,18.8381627 L18.98676,8.67880115 C19.4192906,8.12269631 19.022992,7.31241729 18.3184766,7.31241729 L11.2632892,7.31241729 L11.2632892,2.51494098 C11.2632892,1.70883355 10.2432907,1.3588679 9.74838332,1.99517059 L1.84657337,12.1545322 C1.41404277,12.710637 1.81034135,13.520916 2.51485671,13.520916 L9.57004417,13.520916 Z M9.57004417,4.98242668 L9.57004417,8.15903076 C9.57004417,8.62660246 9.94908997,9.00564422 10.4166667,9.00564422 L16.5874389,9.00564422 L11.2632892,15.8509067 L11.2632892,12.6743026 C11.2632892,12.2067309 10.8842434,11.8276891 10.4166667,11.8276891 L4.24589439,11.8276891 L9.57004417,4.98242668 Z" id="Path-17" fill="#5EF4FF"></path>
                    </g>
                    <path d="M15,0 C6.72890625,0 -1.13686838e-13,6.72890625 -1.13686838e-13,15 L-1.13686838e-13,15 C-1.13686838e-13,23.2710937 6.72890625,30 15,30 L15,30 C23.2710937,30 30,23.2710937 30,15 L30,15 C30,6.72890625 23.2710937,0 15,0 Z M1,15.000234 C1,7.28068005 7.28052695,1 15,1 L15,1 C22.7194731,1 29,7.28068005 29,15.000234 L29,15.000234 C29,22.719788 22.7194731,29 15,29 L15,29 C7.28052695,29 1,22.719788 1,15.000234 L1,15.000234 Z" id="Fill-1" fill="url(#linearGradient-1)"></path>
                </g>
            </g>
        </g>
    </g>
</svg>