<?xml version="1.0" encoding="UTF-8"?>
<svg width="30px" height="30px" viewBox="0 0 30 30" version="1.1" xmlns="http://www.w3.org/2000/svg" xmlns:xlink="http://www.w3.org/1999/xlink">
    <title>编组 32</title>
    <defs>
        <linearGradient x1="14.6610975%" y1="14.6612108%" x2="85.3386759%" y2="85.3387892%" id="linearGradient-1">
            <stop stop-color="#5DF4FF" offset="0%"></stop>
            <stop stop-color="#3399FF" offset="100%"></stop>
        </linearGradient>
    </defs>
    <g id="0804" stroke="none" stroke-width="1" fill="none" fill-rule="evenodd">
        <g id="大屏-默认状态-储能放电+切图" transform="translate(-1224.000000, -670.000000)">
            <g id="编组-6" transform="translate(1213.000000, 663.000000)">
                <g id="编组-17" transform="translate(11.000000, 7.000000)">
                    <g id="编组-32" transform="translate(-0.000000, 0.000000)">
                        <path d="M15,0 C6.72890625,0 1.13686838e-13,6.72890625 1.13686838e-13,15 L1.13686838e-13,15 C1.13686838e-13,23.2710937 6.72890625,30 15,30 L15,30 C23.2710938,30 30,23.2710937 30,15 L30,15 C30,6.72890625 23.2710938,0 15,0 Z M1,15.000234 C1,7.28068005 7.28052695,1 15,1 L15,1 C22.7194731,1 29,7.28068005 29,15.000234 L29,15.000234 C29,22.719788 22.7194731,29 15,29 L15,29 C7.28052695,29 1,22.719788 1,15.000234 L1,15.000234 Z" id="Fill-1" fill="url(#linearGradient-1)"></path>
                        <g id="DT-Guideline-/-component-/-04-icons-/-01-domain-/-storage" transform="translate(5.000000, 5.000000)">
                            <rect id="Rectangle" x="7.40148683e-15" y="7.40148683e-15" width="20" height="20"></rect>
                            <path d="M8.88888889,1.38888889 C9.34912618,1.38888889 9.72222222,1.76198493 9.72222222,2.22222222 L9.72222222,2.22222222 L9.72188889,3.61088889 L11.1111111,3.61111111 C11.5713484,3.61111111 11.9444444,3.98420715 11.9444444,4.44444444 L11.9444444,17.7777778 C11.9444444,18.2380151 11.5713484,18.6111111 11.1111111,18.6111111 L2.22222222,18.6111111 C1.76198493,18.6111111 1.38888889,18.2380151 1.38888889,17.7777778 L1.38888889,4.44444444 C1.38888889,3.98420715 1.76198493,3.61111111 2.22222222,3.61111111 L3.61088889,3.61088889 L3.61111111,2.22222222 C3.61111111,1.7973878 3.92901543,1.44680391 4.33991288,1.39538174 L4.44444444,1.38888889 Z M15.5555556,1.38888889 C16.0157928,1.38888889 16.3888889,1.76198493 16.3888889,2.22222222 L16.3888889,2.22222222 L16.3888889,3.61111111 L17.7777778,3.61111111 C18.2380151,3.61111111 18.6111111,3.98420715 18.6111111,4.44444444 L18.6111111,4.44444444 L18.6111111,17.7777778 C18.6111111,18.2380151 18.2380151,18.6111111 17.7777778,18.6111111 L17.7777778,18.6111111 L14.4444444,18.6111111 C13.9842072,18.6111111 13.6111111,18.2380151 13.6111111,17.7777778 C13.6111111,17.3175405 13.9842072,16.9444444 14.4444444,16.9444444 L14.4444444,16.9444444 L16.9444444,16.9444444 L16.9444444,5.27777778 L15.5555556,5.27777778 C15.0953183,5.27777778 14.7222222,4.90468174 14.7222222,4.44444444 L14.7222222,4.44444444 L14.7222222,3.05555556 L13.3333333,3.05555556 C12.873096,3.05555556 12.5,2.68245951 12.5,2.22222222 C12.5,1.76198493 12.873096,1.38888889 13.3333333,1.38888889 L13.3333333,1.38888889 Z M10.2777778,5.27777778 L3.05555556,5.27777778 L3.05555556,16.9444444 L10.2777778,16.9444444 L10.2777778,5.27777778 Z M7.77777778,13.6111111 C8.23801507,13.6111111 8.61111111,13.9842072 8.61111111,14.4444444 C8.61111111,14.9046817 8.23801507,15.2777778 7.77777778,15.2777778 L7.77777778,15.2777778 L5.55555556,15.2777778 C5.09531826,15.2777778 4.72222222,14.9046817 4.72222222,14.4444444 C4.72222222,13.9842072 5.09531826,13.6111111 5.55555556,13.6111111 L5.55555556,13.6111111 Z M7.77777778,10.2777778 C8.23801507,10.2777778 8.61111111,10.6508738 8.61111111,11.1111111 C8.61111111,11.5713484 8.23801507,11.9444444 7.77777778,11.9444444 L7.77777778,11.9444444 L5.55555556,11.9444444 C5.09531826,11.9444444 4.72222222,11.5713484 4.72222222,11.1111111 C4.72222222,10.6508738 5.09531826,10.2777778 5.55555556,10.2777778 L5.55555556,10.2777778 Z M7.77777778,6.94444444 C8.23801507,6.94444444 8.61111111,7.31754049 8.61111111,7.77777778 C8.61111111,8.23801507 8.23801507,8.61111111 7.77777778,8.61111111 L7.77777778,8.61111111 L5.55555556,8.61111111 C5.09531826,8.61111111 4.72222222,8.23801507 4.72222222,7.77777778 C4.72222222,7.31754049 5.09531826,6.94444444 5.55555556,6.94444444 L5.55555556,6.94444444 Z M8.05555556,3.05555556 L5.27777778,3.05555556 L5.27688889,3.61088889 L8.05488889,3.61088889 L8.05555556,3.05555556 Z" id="Combined-Shape" fill="#5EF4FF"></path>
                        </g>
                    </g>
                </g>
            </g>
        </g>
    </g>
</svg>