<?xml version="1.0" encoding="UTF-8"?>
<svg width="30px" height="30px" viewBox="0 0 30 30" version="1.1" xmlns="http://www.w3.org/2000/svg" xmlns:xlink="http://www.w3.org/1999/xlink">
    <title>编组 33</title>
    <defs>
        <linearGradient x1="14.6610975%" y1="14.6612108%" x2="85.3386759%" y2="85.3387892%" id="linearGradient-1">
            <stop stop-color="#5DF4FF" offset="0%"></stop>
            <stop stop-color="#3399FF" offset="100%"></stop>
        </linearGradient>
    </defs>
    <g id="0804" stroke="none" stroke-width="1" fill="none" fill-rule="evenodd">
        <g id="大屏-默认状态-储能放电+切图" transform="translate(-1288.000000, -89.000000)">
            <g id="编组-19" transform="translate(1277.000000, 82.000000)">
                <g id="编组-17" transform="translate(11.000000, 7.000000)">
                    <g id="编组-33" transform="translate(-0.000000, 0.000000)">
                        <path d="M15,0 C6.72890625,0 2.27373675e-13,6.72890625 2.27373675e-13,15 L2.27373675e-13,15 C2.27373675e-13,23.2710937 6.72890625,30 15,30 L15,30 C23.2710938,30 30,23.2710937 30,15 L30,15 C30,6.72890625 23.2710938,0 15,0 Z M1,15.000234 C1,7.28068005 7.28052695,1 15,1 L15,1 C22.7194731,1 29,7.28068005 29,15.000234 L29,15.000234 C29,22.719788 22.7194731,29 15,29 L15,29 C7.28052695,29 1,22.719788 1,15.000234 L1,15.000234 Z" id="Fill-1" fill="url(#linearGradient-1)"></path>
                        <path d="M14.455233,16.6688244 C14.5743269,16.0733548 15.4256731,16.0733548 15.544767,16.6688244 L15.544767,16.6688244 L16.6558782,22.2243799 C16.7246328,22.5681532 16.4616925,22.8888889 16.1111111,22.8888889 L16.1111111,22.8888889 L13.8888889,22.8888889 C13.5383075,22.8888889 13.2753672,22.5681532 13.3441218,22.2243799 L13.3441218,22.2243799 Z M11.2994708,15.2227566 C11.6980479,14.992638 12.2077066,15.1292006 12.4378253,15.5277778 C12.6679439,15.926355 12.5313813,16.4360136 12.1328041,16.6661323 L12.1328041,16.6661323 L8.28380229,18.8883545 C7.88522511,19.1184731 7.37556643,18.9819105 7.14544779,18.5833333 C6.91532914,18.1847561 7.05189177,17.6750975 7.45046896,17.4449788 L7.45046896,17.4449788 Z M17.5621747,15.5277778 C17.7922934,15.1292006 18.3019521,14.992638 18.7005292,15.2227566 L18.7005292,15.2227566 L22.549531,17.4449788 C22.9481082,17.6750975 23.0846709,18.1847561 22.8545522,18.5833333 C22.6244336,18.9819105 22.1147749,19.1184731 21.7161977,18.8883545 L21.7161977,18.8883545 L17.8671959,16.6661323 C17.4686187,16.4360136 17.3320561,15.926355 17.5621747,15.5277778 Z M15,12.8888889 C15.6136497,12.8888889 16.1111111,13.3863503 16.1111111,14 C16.1111111,14.6136497 15.6136497,15.1111111 15,15.1111111 C14.3863503,15.1111111 13.8888889,14.6136497 13.8888889,14 C13.8888889,13.3863503 14.3863503,12.8888889 15,12.8888889 Z M15,5.38888889 C15.4602373,5.38888889 15.8333333,5.76198493 15.8333333,6.22222222 L15.8333333,6.22222222 L15.8333333,10.6666667 C15.8333333,11.126904 15.4602373,11.5 15,11.5 C14.5397627,11.5 14.1666667,11.126904 14.1666667,10.6666667 L14.1666667,10.6666667 L14.1666667,6.22222222 C14.1666667,5.76198493 14.5397627,5.38888889 15,5.38888889 Z" id="Combined-Shape" fill="#5EF4FF"></path>
                    </g>
                </g>
            </g>
        </g>
    </g>
</svg>