<?xml version="1.0" encoding="UTF-8"?>
<svg width="12px" height="12px" viewBox="0 0 12 12" version="1.1" xmlns="http://www.w3.org/2000/svg" xmlns:xlink="http://www.w3.org/1999/xlink">
    <title>double_right_s</title>
    <g id="0804" stroke="none" stroke-width="1" fill="none" fill-rule="evenodd">
        <g id="大屏-默认状态-储能放电+切图" transform="translate(-898.000000, -610.000000)">
            <g id="编组-5" transform="translate(745.000000, 594.000000)">
                <g id="double_right_s" transform="translate(153.000000, 16.000000)">
                    <rect x="4.54747351e-13" y="0" width="12" height="12"></rect>
                    <path d="M2.70710678,1.29289322 L6.70710678,5.29289322 C7.09763107,5.68341751 7.09763107,6.31658249 6.70710678,6.70710678 L2.70710678,10.7071068 C2.31658249,11.0976311 1.68341751,11.0976311 1.29289322,10.7071068 C0.902368927,10.3165825 0.902368927,9.68341751 1.29289322,9.29289322 L4.58578644,6 L1.29289322,2.70710678 C0.902368927,2.31658249 0.902368927,1.68341751 1.29289322,1.29289322 C1.68341751,0.902368927 2.31658249,0.902368927 2.70710678,1.29289322 Z M7.70710678,1.29289322 L11.7071068,5.29289322 C12.0976311,5.68341751 12.0976311,6.31658249 11.7071068,6.70710678 L7.70710678,10.7071068 C7.31658249,11.0976311 6.68341751,11.0976311 6.29289322,10.7071068 C5.90236893,10.3165825 5.90236893,9.68341751 6.29289322,9.29289322 L9.58578644,6 L6.29289322,2.70710678 C5.90236893,2.31658249 5.90236893,1.68341751 6.29289322,1.29289322 C6.68341751,0.902368927 7.31658249,0.902368927 7.70710678,1.29289322 Z" fill="#5EF4FF"></path>
                </g>
            </g>
        </g>
    </g>
</svg>