<?xml version="1.0" encoding="UTF-8"?>
<svg width="18px" height="18px" viewBox="0 0 18 18" version="1.1" xmlns="http://www.w3.org/2000/svg" xmlns:xlink="http://www.w3.org/1999/xlink">
    <!-- Generator: Sketch 60.1 (88133) - https://sketch.com -->
    <title>sunny</title>
    <desc>Created with Sketch.</desc>
    <defs>
        <rect id="path-1" x="0" y="0" width="18" height="18"></rect>
    </defs>
    <g id="sunny" stroke="none" stroke-width="1" fill="none" fill-rule="evenodd">
        <g>
            <mask id="mask-2" fill="white">
                <use xlink:href="#path-1"></use>
            </mask>
            <g></g>
            <path d="M9.5,14 C9.77614237,14 10,14.2238576 10,14.5 L10,17 C10,17.2761424 9.77614237,17.5 9.5,17.5 L8.5,17.5 C8.22385763,17.5 8,17.2761424 8,17 L8,14.5 C8,14.2238576 8.22385763,14 8.5,14 L9.5,14 Z M14.2631397,10.8839746 L16.4282032,12.1339746 C16.6673495,12.2720458 16.7492871,12.577841 16.6112159,12.8169873 L16.1112159,13.6830127 C15.9731447,13.922159 15.6673495,14.0040966 15.4282032,13.8660254 L13.2631397,12.6160254 C13.0239934,12.4779542 12.9420558,12.172159 13.080127,11.9330127 L13.580127,11.0669873 C13.7181982,10.827841 14.0239934,10.7459034 14.2631397,10.8839746 Z M4.41987298,11.0669873 L4.91987298,11.9330127 C5.05794417,12.172159 4.97600659,12.4779542 4.73686028,12.6160254 L2.57179677,13.8660254 C2.33265046,14.0040966 2.02685526,13.922159 1.88878407,13.6830127 L1.38878407,12.8169873 C1.25071288,12.577841 1.33265046,12.2720458 1.57179677,12.1339746 L3.73686028,10.8839746 C3.97600659,10.7459034 4.28180179,10.827841 4.41987298,11.0669873 Z M9,5 C11.209139,5 13,6.790861 13,9 C13,11.209139 11.209139,13 9,13 C6.790861,13 5,11.209139 5,9 C5,6.790861 6.790861,5 9,5 Z M9,7 C7.8954305,7 7,7.8954305 7,9 C7,10.1045695 7.8954305,11 9,11 C10.1045695,11 11,10.1045695 11,9 C11,7.8954305 10.1045695,7 9,7 Z M16.1112159,4.3169873 L16.6112159,5.1830127 C16.7492871,5.42215901 16.6673495,5.72795422 16.4282032,5.8660254 L14.2631397,7.1160254 C14.0239934,7.25409659 13.7181982,7.17215901 13.580127,6.9330127 L13.080127,6.0669873 C12.9420558,5.82784099 13.0239934,5.52204578 13.2631397,5.3839746 L15.4282032,4.1339746 C15.6673495,3.99590341 15.9731447,4.07784099 16.1112159,4.3169873 Z M2.57179677,4.1339746 L4.73686028,5.3839746 C4.97600659,5.52204578 5.05794417,5.82784099 4.91987298,6.0669873 L4.41987298,6.9330127 C4.28180179,7.17215901 3.97600659,7.25409659 3.73686028,7.1160254 L1.57179677,5.8660254 C1.33265046,5.72795422 1.25071288,5.42215901 1.38878407,5.1830127 L1.88878407,4.3169873 C2.02685526,4.07784099 2.33265046,3.99590341 2.57179677,4.1339746 Z M9.5,0.5 C9.77614237,0.5 10,0.723857625 10,1 L10,3.5 C10,3.77614237 9.77614237,4 9.5,4 L8.5,4 C8.22385763,4 8,3.77614237 8,3.5 L8,1 C8,0.723857625 8.22385763,0.5 8.5,0.5 L9.5,0.5 Z" id="形状结合" fill="#FFFFFF" mask="url(#mask-2)"></path>
        </g>
    </g>
</svg>