<?xml version="1.0" encoding="UTF-8"?>
<svg width="18px" height="18px" viewBox="0 0 18 18" version="1.1" xmlns="http://www.w3.org/2000/svg" xmlns:xlink="http://www.w3.org/1999/xlink">
    <title>breakdown</title>
    <g id="breakdown" stroke="none" stroke-width="1" fill="none" fill-rule="evenodd">
        <g id="Group-12">
            <rect id="right_circle" x="0" y="0" width="18" height="18"></rect>
        </g>
        <path d="M7.25995563,2.0423207 C7.80452228,1.08132073 9.02502517,0.743734819 9.98602514,1.28830147 C10.3009716,1.46677115 10.5615747,1.72737421 10.7400444,2.0423207 L10.7400444,2.0423207 L17.5239817,14.0139749 C18.0685484,14.9749748 17.7309625,16.1954777 16.7699625,16.7400444 C16.4692696,16.910437 16.1295526,17 15.7839374,17 L15.7839374,17 L2.21606264,17 C1.11149314,17 0.216062643,16.1045695 0.216062643,15 C0.216062643,14.6543848 0.305625614,14.3146678 0.476018272,14.0139749 L0.476018272,14.0139749 Z M9.5,12 L8.5,12 C8.22385763,12 8,12.2238576 8,12.5 L8,12.5 L8,13.5 C8,13.7761424 8.22385763,14 8.5,14 L8.5,14 L9.5,14 C9.77614237,14 10,13.7761424 10,13.5 L10,13.5 L10,12.5 C10,12.2238576 9.77614237,12 9.5,12 L9.5,12 Z M9.5,7 L8.5,7 C8.22385763,7 8,7.22385763 8,7.5 L8,7.5 L8,10.5 C8,10.7761424 8.22385763,11 8.5,11 L8.5,11 L9.5,11 C9.77614237,11 10,10.7761424 10,10.5 L10,10.5 L10,7.5 C10,7.22385763 9.77614237,7 9.5,7 L9.5,7 Z" id="形状结合" fill="#FFFFFF"></path>
    </g>
</svg>