<?xml version="1.0" encoding="UTF-8"?>
<svg width="18px" height="18px" viewBox="0 0 18 18" version="1.1" xmlns="http://www.w3.org/2000/svg" xmlns:xlink="http://www.w3.org/1999/xlink">
    <!-- Generator: Sketch 60.1 (88133) - https://sketch.com -->
    <title>Icon/18/curtailment</title>
    <desc>Created with Sketch.</desc>
    <g id="Icon/18/curtailment" stroke="none" stroke-width="1" fill="none" fill-rule="evenodd">
        <g id="Group-12">
            <rect id="empty" x="0" y="0" width="18" height="18"></rect>
            <path d="M16.5,1 C16.7761424,1 17,1.22385763 17,1.5 L17,2.5 C17,2.77614237 16.7761424,3 16.5,3 L16.117,3 L12,11.235 L12,16.6403882 C12,16.6812691 11.9949863,16.7219957 11.9850713,16.761656 C11.9180969,17.0295535 11.6466296,17.1924338 11.3787322,17.1254595 L11.3787322,17.1254595 L6.37873219,15.8754595 C6.15614869,15.8198136 6,15.619822 6,15.3903882 L6,15.3903882 L6,11.237 L1.881,3 L1.5,3 C1.22385763,3 1,2.77614237 1,2.5 L1,1.5 C1,1.22385763 1.22385763,1 1.5,1 L16.5,1 Z M6.12020267,7.00534993 L8,10.763932 L8,14.219 L10,14.719 L10,10.763932 L11.3031907,8.15607574 C10.3622516,8.22189741 9.40435432,7.98091216 8.58758827,7.43312 L8.4,7.3 C7.73333861,6.80000396 6.86578756,6.70178727 6.12020267,7.00534993 Z M13.881,3 L4.118,3 L5.22396219,5.21364873 C6.63941085,4.57736259 8.31930623,4.73947967 9.6,5.7 C10.3808279,6.28562092 11.4372421,6.3200692 12.2504919,5.80334487 L12.4,5.7 L12.609,5.543 L13.881,3 Z" id="形状结合" fill="#FFFFFF"></path>
        </g>
    </g>
</svg>