<?xml version="1.0" encoding="UTF-8"?>
<svg width="24px" height="24px" viewBox="0 0 14 14" version="1.1" xmlns="http://www.w3.org/2000/svg" xmlns:xlink="http://www.w3.org/1999/xlink">
    <!-- Generator: Sketch 55.2 (78181) - https://sketchapp.com -->
    <title>environment stop</title>
    <desc>Created with Sketch.</desc>
    <g id="Page-1" stroke="none" stroke-width="1" fill="none" fill-rule="evenodd">
        <g id="风机状态icon切图" transform="translate(-542.000000, -652.000000)">
            <g id="environment-stop备份-2" transform="translate(542.000000, 652.000000)">
                <rect id="environment-stop" x="0" y="0" width="14" height="14"></rect>
                <path d="M3.77031451,4.01704665 C4.33942208,2.5754858 5.74504675,1.55555556 7.38888889,1.55555556 C9.53666292,1.55555556 11.2777778,3.29667042 11.2777778,5.44444444 C11.2777778,5.47463767 11.2774337,5.50475053 11.2767492,5.53477932 C12.8119239,5.72569399 14,7.03507633 14,8.62194872 C14,10.3401679 12.6071081,11.7330598 10.8888889,11.7330598 L3.88888889,11.7330598 C3.82552706,11.7330598 3.76260763,11.7311657 3.70018414,11.7274309 C3.63393188,11.7311667 3.56718702,11.7330598 3.5,11.7330598 C1.56700338,11.7330598 0,10.1660565 0,8.23305984 C0,6.42216312 1.37529259,4.9324832 3.13838386,4.75151398 C3.1389166,4.7520256 3.13944989,4.75253746 3.13998374,4.75304957 C4.30301851,4.66646716 5.2156691,4.96736502 5.87793552,5.65574316 C5.64755141,4.79384051 4.64471824,4.19495518 3.77031451,4.01704665 Z" id="形状结合" fill="#FFFFFF"></path>
            </g>
        </g>
    </g>
</svg>