<?xml version="1.0" encoding="UTF-8"?>
<svg width="24px" height="24px" viewBox="0 0 14 14" version="1.1" xmlns="http://www.w3.org/2000/svg" xmlns:xlink="http://www.w3.org/1999/xlink">
    <!-- Generator: Sketch 55.2 (78181) - https://sketchapp.com -->
    <title>Fault stop</title>
    <desc>Created with Sketch.</desc>
    <g id="Page-1" stroke="none" stroke-width="1" fill="none" fill-rule="evenodd">
        <g id="风机状态icon切图" transform="translate(-761.000000, -439.000000)">
            <g id="Fault-stop" transform="translate(761.000000, 439.000000)">
                <rect fill-rule="nonzero" x="0" y="0" width="14" height="14"></rect>
                <path d="M11.1713563,7.54309782 C11.1113601,7.59088988 11.0534319,7.64254877 10.9979061,7.6980745 L10.7916667,7.90431398 L10.5854272,7.6980745 C10.0521936,7.16484094 9.29738667,6.98822439 8.61737492,7.16822485 C8.62865182,7.07521198 8.63445607,6.98051185 8.63445607,6.88445607 C8.63445607,5.59579165 7.58978715,4.55112274 6.30112274,4.55112274 C5.01245832,4.55112274 3.9677894,5.59579165 3.9677894,6.88445607 C3.9677894,8.17312049 5.01245832,9.2177894 6.30112274,9.2177894 C6.5821553,9.2177894 6.85158366,9.16810589 7.10110346,9.07704322 C7.08396497,9.62090358 7.28295532,10.170308 7.6980745,10.5854272 L7.90431398,10.7916667 L7.6980745,10.9979061 C7.42992589,11.2660547 7.25195894,11.5902351 7.16417364,11.9327588 C6.95077851,11.6982923 6.64313728,11.5511227 6.30112274,11.5511227 C5.69578149,11.5511227 5.19811965,12.0121531 5.14010559,12.6022455 C4.39122476,12.4510051 3.69432838,12.1563262 3.07932116,11.7481132 C3.45521949,11.2898383 3.42920947,10.6122061 3.00129109,10.1842877 C2.57337271,9.75636934 1.8957405,9.73035931 1.43746557,10.1062576 C1.02925265,9.49125042 0.734573668,8.79435405 0.583333333,8.04547322 C1.1734257,7.98745915 1.63445607,7.48979732 1.63445607,6.88445607 C1.63445607,6.27911482 1.1734257,5.78145298 0.583333333,5.72343892 C0.734573668,4.97455809 1.02925265,4.27766171 1.43746557,3.66265449 C1.8957405,4.03855282 2.57337271,4.0125428 3.00129109,3.58462442 C3.42920947,3.15670605 3.45521949,2.47907383 3.07932116,2.0207989 C3.69432838,1.61258598 4.39122476,1.317907 5.14010559,1.16666667 C5.19811965,1.75675904 5.69578149,2.2177894 6.30112274,2.2177894 C6.90646398,2.2177894 7.40412582,1.75675904 7.46213988,1.16666667 C8.21102071,1.317907 8.90791709,1.61258598 9.52292431,2.0207989 C9.14702598,2.47907383 9.173036,3.15670605 9.60095438,3.58462442 C10.0288728,4.0125428 10.706505,4.03855282 11.1647799,3.66265449 C11.5729928,4.27766171 11.8676718,4.97455809 12.0189121,5.72343892 C11.4288198,5.78145298 10.9677894,6.27911482 10.9677894,6.88445607 C10.9677894,7.12883264 11.0429254,7.35566026 11.1713563,7.54309782 Z M12.0291035,10.7916667 L13.0603009,11.8228641 C13.4020097,12.1645728 13.4020097,12.7185922 13.0603009,13.0603009 C12.7185922,13.4020097 12.1645728,13.4020097 11.8228641,13.0603009 L10.7916667,12.0291035 L9.76046928,13.0603009 C9.41876052,13.4020097 8.86474117,13.4020097 8.52303241,13.0603009 C8.18132366,12.7185922 8.18132366,12.1645728 8.52303241,11.8228641 L9.5542298,10.7916667 L8.52303241,9.76046928 C8.18132366,9.41876052 8.18132366,8.86474117 8.52303241,8.52303241 C8.86474117,8.18132366 9.41876052,8.18132366 9.76046928,8.52303241 L10.7916667,9.5542298 L11.8228641,8.52303241 C12.1645728,8.18132366 12.7185922,8.18132366 13.0603009,8.52303241 C13.4020097,8.86474117 13.4020097,9.41876052 13.0603009,9.76046928 L12.0291035,10.7916667 Z" fill="#FFFFFF"></path>
            </g>
        </g>
    </g>
</svg>