<?xml version="1.0" encoding="UTF-8"?>
<svg width="24px" height="24px" viewBox="0 0 14 14" version="1.1" xmlns="http://www.w3.org/2000/svg" xmlns:xlink="http://www.w3.org/1999/xlink">
    <!-- Generator: Sketch 55.2 (78181) - https://sketchapp.com -->
    <title>default</title>
    <desc>Created with Sketch.</desc>
    <g id="Page-1" stroke="none" stroke-width="1" fill="none" fill-rule="evenodd">
        <g id="风机状态icon切图" transform="translate(-1041.000000, -439.000000)">
            <g id="default备份-2" transform="translate(1041.000000, 439.000000)">
                <rect id="default" x="0" y="0" width="14" height="14"></rect>
                <path d="M11.9340174,1.48999029 C11.4101581,0.965472285 10.5259595,0.997366937 9.96297693,1.56132524 L1.72550587,9.81088476 C1.59357562,9.94302881 1.51849439,10.1102379 1.49924929,10.2825198 C1.49583075,10.2985622 1.49196907,10.3144144 1.48956343,10.3309007 L1.12105768,12.8279412 L1.09109158,13.0237427 C1.07281494,13.1419 1.19773695,13.2742038 1.33707852,13.2487827 L1.50301725,13.2222222 L3.99842346,12.8872333 C4.05457611,12.8796876 4.10844974,12.8661815 4.15972781,12.8478564 C4.29925481,12.8155813 4.43194473,12.7458949 4.54070489,12.6369585 L12.778176,4.38739902 C13.3411585,3.82337731 13.3731282,2.93780932 12.8493955,2.4131645 L11.9340174,1.48999029 Z" id="default" fill="#FFFFFF"></path>
                <path d="M7.8102477,13.3194444 C7.36461147,13.3194444 7,12.9414596 7,12.479478 L7,12.4094108 C7,11.9474293 7.36461147,11.5694444 7.8102477,11.5694444 L12.4119745,11.5694444 C12.8576108,11.5694444 13.2222222,11.9474293 13.2222222,12.4094108 L13.2222222,12.479478 C13.2222222,12.9414596 12.8576108,13.3194444 12.4119745,13.3194444 L7.8102477,13.3194444 Z" id="default" fill="#FFFFFF"></path>
            </g>
        </g>
    </g>
</svg>